<?xml version="1.0" encoding="utf-8"?>
<!-- Generator: Adobe Illustrator 21.1.0, SVG Export Plug-In . SVG Version: 6.00 Build 0)  -->
<svg version="1.0" xmlns="http://www.w3.org/2000/svg" xmlns:xlink="http://www.w3.org/1999/xlink" x="0px" y="0px"
	 viewBox="0 0 400 400" style="enable-background:new 0 0 400 400;" xml:space="preserve">
<style type="text/css">
	.st0{display:none;}
	.st1{display:inline;fill:#6F532A;}
	.st2{display:inline;}
	.st3{fill:#6F532A;}
	.st4{display:inline;fill-rule:evenodd;clip-rule:evenodd;fill:#6F532A;}
	.st5{fill-rule:evenodd;clip-rule:evenodd;fill:#FFFFFF;}
	.st6{fill:#FFFFFF;}
</style>
<g id="Capa_1" class="st0">
	<path class="st1" d="M368.6,247.1V302c-18.7-5.9-28.9-2.9-38.9-6.9c-16.3-6.6-15.5-9.4-20.1-17.5c-4.6-8.1-2.8-11.7-2.8-13.7
		c0-25.6,18.4-70.7-17-94.3c1.3-4.8-0.8-12.5-4.1-24.9c-3.3-12.4-21.1-25.4-21.1-22.6c0,2.8-2,22.9-2,22.9s-4.3-11.4-9.9-15.2
		c-5.6-3.8-9.7-7.4-9.7-7.4l-0.3,21.6c0,0-14-1.8-21.9,4.3c-7.9,6.1-13.7,8.6-18.8,9.9c-5.1,1.3-16.9,0.4-20.8,2.7
		c-3.9,2.3-4.7,3.9-4.4,5.8c0.3,1.9,1,2.8,0.3,4.2c-0.8,1.4-5.2,6.4-5.1,12.1c0.1,5.7,1,7.3,1,7.3s-1.4,8.6,0,15.4
		c1.4,6.7,10.5,10.2,14.7,13.5c4.2,3.3,10.4,12.7,10.4,13.3c0,0.6,3.7-2.8-8,19.6c-11.7,22.4-11.7,42.7-11.2,56.4
		c0.2,6.3,0.6,21.7,1.7,38.7l-13.3-0.1c-4.3-18.5-2.6-36-1.4-54.8c0.8-13.3,1.6-27.7-2.1-40.6c-0.8-2.7-1.7-5.4-2.6-8
		c-2.4-0.6-5.1-1-7.9-0.7c-7.2,0.6-14.2,2.2-21.4,3.2c-14.5,2-29.7,5.1-44.4,3.8c-8.9-0.8-15.4-6.4-20.2-14
		c-7.9-12.9-18.3-22.6-28.9-33c-6.3-6.2-10.1-12.1-6.7-21.1c2.9-7.6,15.7-11.1,21.9-14.1c21.3-10.2,42.4-17.8,60.7-31.9
		c2.4-15.3,8.5-27.9,23.1-35.9c11.7-6.4,23.5-12.3,35.6-17.6c7.3-3.2,15.1-5.2,22.7-7.7c1.5-24.1,6.7-51.2,23.8-65.8
		c0.8-0.7,1.7-0.8,2.5-0.6c1.6-0.5,3.8,0.4,3.9,2.7c0.8,24.7,10.9,46,19.6,68.5c3.5,9,7.1,18.6,8,28.3c2.3,1.1,4.6,2.2,6.7,3.3
		c8.7,4.4,17.6,9.1,26,14.3c16.8,10.4,30.8,25.4,41.4,42.7c13.3,21.8,20.2,46.5,27.1,71.2C359.4,241.8,364.1,244.4,368.6,247.1z"/>
	<g class="st2">
		<path class="st3" d="M34.8,393.4h-7.3v-7.3H12.9v7.3H5.6v-21.8c0-2,0.4-3.9,1.1-5.7s1.8-3.3,3.1-4.6c1.3-1.3,2.9-2.4,4.6-3.1
			c1.8-0.8,3.7-1.1,5.7-1.1c2,0,3.9,0.4,5.7,1.1c1.8,0.8,3.3,1.8,4.6,3.1s2.4,2.9,3.1,4.6s1.1,3.7,1.1,5.7V393.4z M27.5,378.8v-7.3
			c0-1-0.2-1.9-0.6-2.8s-0.9-1.7-1.6-2.3s-1.4-1.2-2.3-1.6s-1.8-0.6-2.8-0.6c-1,0-1.9,0.2-2.8,0.6s-1.7,0.9-2.3,1.6
			s-1.2,1.4-1.6,2.3s-0.6,1.8-0.6,2.8v7.3H27.5z"/>
		<path class="st3" d="M70.3,375.1c0,1.7-0.2,3.3-0.6,4.8s-1,3-1.8,4.3c-0.8,1.3-1.7,2.6-2.8,3.7c-1.1,1.1-2.3,2.1-3.7,2.9
			c-1.4,0.8-2.8,1.4-4.4,1.8s-3.2,0.6-4.8,0.6h-11v-36.4h11c1.7,0,3.3,0.2,4.8,0.6s3,1,4.4,1.8c1.4,0.8,2.6,1.7,3.7,2.9
			c1.1,1.1,2,2.3,2.8,3.7c0.8,1.3,1.4,2.8,1.8,4.3S70.3,373.5,70.3,375.1z M63,375.1c0-1.5-0.3-2.9-0.9-4.2
			c-0.6-1.3-1.3-2.5-2.3-3.5s-2.1-1.8-3.5-2.3c-1.3-0.6-2.7-0.9-4.3-0.9h-3.6v21.8h3.6c1.5,0,2.9-0.3,4.3-0.9
			c1.3-0.6,2.5-1.3,3.5-2.3s1.8-2.1,2.3-3.5C62.7,378.1,63,376.7,63,375.1z"/>
		<path class="st3" d="M110.8,375.3c0,1.7-0.2,3.4-0.7,5c-0.4,1.6-1.1,3.1-1.9,4.5s-1.8,2.7-2.9,3.8c-1.2,1.2-2.4,2.1-3.8,3
			c-1.4,0.8-2.9,1.5-4.5,1.9c-1.6,0.4-3.3,0.7-5,0.7s-3.4-0.2-5-0.7s-3.1-1.1-4.5-1.9s-2.7-1.8-3.8-3c-1.2-1.2-2.1-2.4-3-3.8
			c-0.8-1.4-1.5-2.9-1.9-4.5c-0.4-1.6-0.7-3.3-0.7-5s0.2-3.4,0.7-5c0.4-1.6,1.1-3.1,1.9-4.5c0.8-1.4,1.8-2.7,3-3.8
			c1.2-1.2,2.4-2.1,3.8-2.9s2.9-1.4,4.5-1.9s3.3-0.7,5-0.7s3.4,0.2,5,0.7c1.6,0.4,3.1,1.1,4.5,1.9c1.4,0.8,2.7,1.8,3.8,2.9
			c1.2,1.2,2.1,2.4,2.9,3.8s1.4,2.9,1.9,4.5C110.5,371.9,110.8,373.6,110.8,375.3z M103.5,375.3c0-1.6-0.3-3.1-0.9-4.5
			s-1.4-2.6-2.5-3.7s-2.3-1.9-3.7-2.5c-1.4-0.6-2.9-0.9-4.5-0.9c-1.6,0-3.1,0.3-4.5,0.9c-1.4,0.6-2.6,1.4-3.7,2.5
			c-1,1-1.9,2.3-2.5,3.7s-0.9,2.9-0.9,4.5s0.3,3.1,0.9,4.5s1.4,2.6,2.5,3.7c1,1,2.3,1.9,3.7,2.5c1.4,0.6,2.9,0.9,4.5,0.9
			c1.6,0,3.1-0.3,4.5-0.9c1.4-0.6,2.6-1.4,3.7-2.5s1.9-2.3,2.5-3.7S103.5,376.9,103.5,375.3z"/>
		<path class="st3" d="M122.8,393.4h-7.3v-36.4h14.6c1.3,0,2.6,0.2,3.9,0.5c1.2,0.3,2.4,0.8,3.5,1.5c1.1,0.6,2.1,1.4,2.9,2.3
			s1.7,1.9,2.3,3s1.1,2.2,1.5,3.5c0.3,1.2,0.5,2.5,0.5,3.9c0,2-0.4,3.9-1.1,5.6s-1.8,3.3-3.1,4.6s-2.9,2.4-4.6,3.1
			c-1.8,0.8-3.7,1.1-5.6,1.1h-7.3V393.4z M122.8,364.2v14.6h7.3c1,0,1.9-0.2,2.8-0.6c0.9-0.4,1.7-0.9,2.3-1.6s1.2-1.4,1.6-2.3
			s0.6-1.8,0.6-2.8s-0.2-1.9-0.6-2.8s-0.9-1.7-1.6-2.3s-1.4-1.2-2.3-1.6c-0.9-0.4-1.8-0.6-2.8-0.6H122.8z"/>
		<path class="st3" d="M163.9,393.4h-7.3v-29.1h-10.9v-7.3h29.1v7.3h-10.9V393.4z"/>
		<path class="st3" d="M206.3,393.4H199v-7.3h-14.6v7.3h-7.3v-21.8c0-2,0.4-3.9,1.1-5.7s1.8-3.3,3.1-4.6s2.9-2.4,4.6-3.1
			s3.7-1.1,5.7-1.1s3.9,0.4,5.7,1.1s3.3,1.8,4.6,3.1s2.4,2.9,3.1,4.6s1.1,3.7,1.1,5.7V393.4z M199,378.8v-7.3c0-1-0.2-1.9-0.6-2.8
			s-0.9-1.7-1.6-2.3s-1.4-1.2-2.3-1.6s-1.8-0.6-2.8-0.6s-1.9,0.2-2.8,0.6s-1.7,0.9-2.3,1.6s-1.2,1.4-1.6,2.3s-0.6,1.8-0.6,2.8v7.3
			H199z"/>
		<path class="st3" d="M278.1,393.4h-7.3v-36.4h14.6c1.3,0,2.6,0.2,3.9,0.5s2.4,0.8,3.5,1.5s2.1,1.4,2.9,2.3s1.7,1.9,2.3,3
			s1.1,2.2,1.5,3.5s0.5,2.5,0.5,3.9c0,2-0.4,3.9-1.1,5.6s-1.8,3.3-3.1,4.6s-2.9,2.4-4.6,3.1s-3.7,1.1-5.6,1.1h-7.3V393.4z
			 M278.1,364.2v14.6h7.3c1,0,1.9-0.2,2.8-0.6s1.7-0.9,2.3-1.6s1.2-1.4,1.6-2.3s0.6-1.8,0.6-2.8s-0.2-1.9-0.6-2.8s-0.9-1.7-1.6-2.3
			s-1.4-1.2-2.3-1.6s-1.8-0.6-2.8-0.6H278.1z"/>
		<path class="st3" d="M329.2,393.4h-25v-36.4h25v7.3h-17.7v7.3h12v7.3h-12v7.3h17.7V393.4z"/>
		<path class="st3" d="M349.6,393.4h-7.3v-29.1h-10.9v-7.3h29.1v7.3h-10.9V393.4z"/>
		<path class="st3" d="M361.9,367.9c0-1.5,0.3-2.9,0.9-4.2s1.4-2.5,2.3-3.5s2.1-1.8,3.5-2.3s2.7-0.9,4.2-0.9h16.7v7.3h-16.7
			c-0.5,0-1,0.1-1.4,0.3s-0.8,0.4-1.2,0.8s-0.6,0.7-0.8,1.2s-0.3,0.9-0.3,1.4s0.1,1,0.3,1.4s0.4,0.8,0.8,1.2s0.7,0.6,1.2,0.8
			s0.9,0.3,1.4,0.3h7.3c1.5,0,2.9,0.3,4.3,0.9s2.5,1.3,3.5,2.3s1.8,2.1,2.3,3.5s0.9,2.7,0.9,4.3s-0.3,2.9-0.9,4.2s-1.3,2.5-2.3,3.5
			s-2.1,1.8-3.5,2.3s-2.7,0.9-4.3,0.9H364v-7.3h16.2c0.5,0,1-0.1,1.4-0.3s0.8-0.4,1.2-0.8s0.6-0.7,0.8-1.2s0.3-0.9,0.3-1.4
			s-0.1-1-0.3-1.4s-0.4-0.8-0.8-1.2s-0.7-0.6-1.2-0.8s-0.9-0.3-1.4-0.3h-7.3c-1.5,0-2.9-0.3-4.2-0.9s-2.5-1.4-3.5-2.3
			s-1.8-2.1-2.3-3.5S361.9,369.4,361.9,367.9z"/>
	</g>
	<path class="st4" d="M265.7,371.7c0,2.7-2.4,5-3.2,7.5c-0.8,2.5-0.3,5.8-1.8,7.9c-1.5,2.1-4.8,2.6-7,4.2c-2.1,1.5-3.6,4.5-6.1,5.4
		c-2.4,0.8-5.4-0.7-8.1-0.7c-2.7,0-5.6,1.5-8.1,0.7c-2.5-0.8-4-3.8-6.1-5.4c-2.1-1.5-5.4-2-7-4.2c-1.5-2.1-1-5.4-1.8-7.9
		c-0.8-2.4-3.2-4.8-3.2-7.5c0-2.7,2.4-5,3.2-7.5c0.8-2.5,0.3-5.8,1.8-7.9c1.6-2.1,4.8-2.6,7-4.2c2.1-1.5,3.6-4.5,6.1-5.4
		c2.4-0.8,5.4,0.7,8.1,0.7c2.7,0,5.6-1.5,8.1-0.7c2.5,0.8,4,3.8,6.1,5.4c2.1,1.5,5.4,2,7,4.2c1.5,2.1,1,5.4,1.8,7.9
		C263.3,366.7,265.7,369,265.7,371.7z M242.6,368.1c2.2,0.7,4.7-1.1,5.7-4.1c0.9-3-0.1-6-2.2-6.6c-2.2-0.7-4.7,1.1-5.7,4.1
		C239.4,364.4,240.4,367.4,242.6,368.1z M254.9,365.6c-2.1-0.7-4.5,1.2-5.5,4.2c-1,3,0,6,2,6.6c2.1,0.7,4.5-1.2,5.5-4.2
		C257.9,369.2,257,366.2,254.9,365.6z M236.3,368.3c2.1-0.6,2.9-3.6,1.9-6.7c-1-3.1-3.5-5-5.6-4.4c-2.1,0.6-2.9,3.6-1.9,6.7
		C231.7,366.9,234.2,368.9,236.3,368.3z M229.8,369.8c-1-3.1-3.6-5-5.6-4.4c-2.1,0.6-2.9,3.6-1.9,6.7c1,3.1,3.6,5,5.6,4.4
		C229.9,375.8,230.8,372.8,229.8,369.8z M239.9,369h-0.5c0,0-9.8,1.6-9.7,12.9c0,6.6,5.5,3.8,5.5,3.8s2.3-0.9,4.3-0.9l0.5-0.1
		c1.9,0,4.3,0.8,4.3,0.8s5.5,2.9,5.5-3.7C249.7,370.6,239.9,369,239.9,369z"/>
</g>
<g id="Capa_2">
	<path class="st5" d="M265.7,371.7c0,2.7-2.4,5-3.2,7.5c-0.8,2.5-0.3,5.8-1.8,7.9c-1.5,2.1-4.8,2.6-7,4.2c-2.1,1.5-3.6,4.5-6.1,5.4
		c-2.4,0.8-5.4-0.7-8.1-0.7c-2.7,0-5.6,1.5-8.1,0.7c-2.5-0.8-4-3.8-6.1-5.4c-2.1-1.5-5.4-2-7-4.2c-1.5-2.1-1-5.4-1.8-7.9
		c-0.8-2.4-3.2-4.8-3.2-7.5c0-2.7,2.4-5,3.2-7.5c0.8-2.5,0.3-5.8,1.8-7.9c1.6-2.1,4.8-2.6,7-4.2c2.1-1.5,3.6-4.5,6.1-5.4
		c2.4-0.8,5.4,0.7,8.1,0.7c2.7,0,5.6-1.5,8.1-0.7c2.5,0.8,4,3.8,6.1,5.4c2.1,1.5,5.4,2,7,4.2c1.5,2.1,1,5.4,1.8,7.9
		C263.3,366.7,265.7,369,265.7,371.7z M242.6,368.1c2.2,0.7,4.7-1.1,5.7-4.1c0.9-3-0.1-6-2.2-6.6c-2.2-0.7-4.7,1.1-5.7,4.1
		C239.4,364.4,240.4,367.4,242.6,368.1z M254.9,365.6c-2.1-0.7-4.5,1.2-5.5,4.2c-1,3,0,6,2,6.6c2.1,0.7,4.5-1.2,5.5-4.2
		C257.9,369.2,257,366.2,254.9,365.6z M236.3,368.3c2.1-0.6,2.9-3.6,1.9-6.7c-1-3.1-3.5-5-5.6-4.4c-2.1,0.6-2.9,3.6-1.9,6.7
		C231.7,366.9,234.2,368.9,236.3,368.3z M229.8,369.8c-1-3.1-3.6-5-5.6-4.4c-2.1,0.6-2.9,3.6-1.9,6.7c1,3.1,3.6,5,5.6,4.4
		C229.9,375.8,230.8,372.8,229.8,369.8z M239.9,369h-0.5c0,0-9.8,1.6-9.7,12.9c0,6.6,5.5,3.8,5.5,3.8s2.3-0.9,4.3-0.9l0.5-0.1
		c1.9,0,4.3,0.8,4.3,0.8s5.5,2.9,5.5-3.7C249.7,370.6,239.9,369,239.9,369z"/>
	<g>
		<path class="st6" d="M34.8,393.4h-7.3v-7.3H12.9v7.3H5.6v-21.8c0-2,0.4-3.9,1.1-5.7s1.8-3.3,3.1-4.6c1.3-1.3,2.9-2.4,4.6-3.1
			c1.8-0.8,3.7-1.1,5.7-1.1c2,0,3.9,0.4,5.7,1.1c1.8,0.8,3.3,1.8,4.6,3.1s2.4,2.9,3.1,4.6s1.1,3.7,1.1,5.7V393.4z M27.5,378.8v-7.3
			c0-1-0.2-1.9-0.6-2.8s-0.9-1.7-1.6-2.3s-1.4-1.2-2.3-1.6s-1.8-0.6-2.8-0.6c-1,0-1.9,0.2-2.8,0.6s-1.7,0.9-2.3,1.6
			s-1.2,1.4-1.6,2.3s-0.6,1.8-0.6,2.8v7.3H27.5z"/>
		<path class="st6" d="M70.3,375.1c0,1.7-0.2,3.3-0.6,4.8s-1,3-1.8,4.3c-0.8,1.3-1.7,2.6-2.8,3.7c-1.1,1.1-2.3,2.1-3.7,2.9
			c-1.4,0.8-2.8,1.4-4.4,1.8s-3.2,0.6-4.8,0.6h-11v-36.4h11c1.7,0,3.3,0.2,4.8,0.6s3,1,4.4,1.8c1.4,0.8,2.6,1.7,3.7,2.9
			c1.1,1.1,2,2.3,2.8,3.7c0.8,1.3,1.4,2.8,1.8,4.3S70.3,373.5,70.3,375.1z M63,375.1c0-1.5-0.3-2.9-0.9-4.2
			c-0.6-1.3-1.3-2.5-2.3-3.5s-2.1-1.8-3.5-2.3c-1.3-0.6-2.7-0.9-4.3-0.9h-3.6v21.8h3.6c1.5,0,2.9-0.3,4.3-0.9
			c1.3-0.6,2.5-1.3,3.5-2.3s1.8-2.1,2.3-3.5C62.7,378.1,63,376.7,63,375.1z"/>
		<path class="st6" d="M110.8,375.3c0,1.7-0.2,3.4-0.7,5c-0.4,1.6-1.1,3.1-1.9,4.5s-1.8,2.7-2.9,3.8c-1.2,1.2-2.4,2.1-3.8,3
			c-1.4,0.8-2.9,1.5-4.5,1.9c-1.6,0.4-3.3,0.7-5,0.7s-3.4-0.2-5-0.7s-3.1-1.1-4.5-1.9s-2.7-1.8-3.8-3c-1.2-1.2-2.1-2.4-3-3.8
			c-0.8-1.4-1.5-2.9-1.9-4.5c-0.4-1.6-0.7-3.3-0.7-5s0.2-3.4,0.7-5c0.4-1.6,1.1-3.1,1.9-4.5c0.8-1.4,1.8-2.7,3-3.8
			c1.2-1.2,2.4-2.1,3.8-2.9s2.9-1.4,4.5-1.9s3.3-0.7,5-0.7s3.4,0.2,5,0.7c1.6,0.4,3.1,1.1,4.5,1.9c1.4,0.8,2.7,1.8,3.8,2.9
			c1.2,1.2,2.1,2.4,2.9,3.8s1.4,2.9,1.9,4.5C110.5,371.9,110.8,373.6,110.8,375.3z M103.5,375.3c0-1.6-0.3-3.1-0.9-4.5
			s-1.4-2.6-2.5-3.7s-2.3-1.9-3.7-2.5c-1.4-0.6-2.9-0.9-4.5-0.9c-1.6,0-3.1,0.3-4.5,0.9c-1.4,0.6-2.6,1.4-3.7,2.5
			c-1,1-1.9,2.3-2.5,3.7s-0.9,2.9-0.9,4.5s0.3,3.1,0.9,4.5s1.4,2.6,2.5,3.7c1,1,2.3,1.9,3.7,2.5c1.4,0.6,2.9,0.9,4.5,0.9
			c1.6,0,3.1-0.3,4.5-0.9c1.4-0.6,2.6-1.4,3.7-2.5s1.9-2.3,2.5-3.7S103.5,376.9,103.5,375.3z"/>
		<path class="st6" d="M122.8,393.4h-7.3v-36.4h14.6c1.3,0,2.6,0.2,3.9,0.5c1.2,0.3,2.4,0.8,3.5,1.5c1.1,0.6,2.1,1.4,2.9,2.3
			s1.7,1.9,2.3,3s1.1,2.2,1.5,3.5c0.3,1.2,0.5,2.5,0.5,3.9c0,2-0.4,3.9-1.1,5.6s-1.8,3.3-3.1,4.6s-2.9,2.4-4.6,3.1
			c-1.8,0.8-3.7,1.1-5.6,1.1h-7.3V393.4z M122.8,364.2v14.6h7.3c1,0,1.9-0.2,2.8-0.6c0.9-0.4,1.7-0.9,2.3-1.6s1.2-1.4,1.6-2.3
			s0.6-1.8,0.6-2.8s-0.2-1.9-0.6-2.8s-0.9-1.7-1.6-2.3s-1.4-1.2-2.3-1.6c-0.9-0.4-1.8-0.6-2.8-0.6H122.8z"/>
		<path class="st6" d="M163.9,393.4h-7.3v-29.1h-10.9v-7.3h29.1v7.3h-10.9V393.4z"/>
		<path class="st6" d="M206.3,393.4H199v-7.3h-14.6v7.3h-7.3v-21.8c0-2,0.4-3.9,1.1-5.7s1.8-3.3,3.1-4.6s2.9-2.4,4.6-3.1
			s3.7-1.1,5.7-1.1s3.9,0.4,5.7,1.1s3.3,1.8,4.6,3.1s2.4,2.9,3.1,4.6s1.1,3.7,1.1,5.7V393.4z M199,378.8v-7.3c0-1-0.2-1.9-0.6-2.8
			s-0.9-1.7-1.6-2.3s-1.4-1.2-2.3-1.6s-1.8-0.6-2.8-0.6s-1.9,0.2-2.8,0.6s-1.7,0.9-2.3,1.6s-1.2,1.4-1.6,2.3s-0.6,1.8-0.6,2.8v7.3
			H199z"/>
		<path class="st6" d="M278.1,393.4h-7.3v-36.4h14.6c1.3,0,2.6,0.2,3.9,0.5s2.4,0.8,3.5,1.5s2.1,1.4,2.9,2.3s1.7,1.9,2.3,3
			s1.1,2.2,1.5,3.5s0.5,2.5,0.5,3.9c0,2-0.4,3.9-1.1,5.6s-1.8,3.3-3.1,4.6s-2.9,2.4-4.6,3.1s-3.7,1.1-5.6,1.1h-7.3V393.4z
			 M278.1,364.2v14.6h7.3c1,0,1.9-0.2,2.8-0.6s1.7-0.9,2.3-1.6s1.2-1.4,1.6-2.3s0.6-1.8,0.6-2.8s-0.2-1.9-0.6-2.8s-0.9-1.7-1.6-2.3
			s-1.4-1.2-2.3-1.6s-1.8-0.6-2.8-0.6H278.1z"/>
		<path class="st6" d="M329.2,393.4h-25v-36.4h25v7.3h-17.7v7.3h12v7.3h-12v7.3h17.7V393.4z"/>
		<path class="st6" d="M349.6,393.4h-7.3v-29.1h-10.9v-7.3h29.1v7.3h-10.9V393.4z"/>
		<path class="st6" d="M361.9,367.9c0-1.5,0.3-2.9,0.9-4.2s1.4-2.5,2.3-3.5s2.1-1.8,3.5-2.3s2.7-0.9,4.2-0.9h16.7v7.3h-16.7
			c-0.5,0-1,0.1-1.4,0.3s-0.8,0.4-1.2,0.8s-0.6,0.7-0.8,1.2s-0.3,0.9-0.3,1.4s0.1,1,0.3,1.4s0.4,0.8,0.8,1.2s0.7,0.6,1.2,0.8
			s0.9,0.3,1.4,0.3h7.3c1.5,0,2.9,0.3,4.3,0.9s2.5,1.3,3.5,2.3s1.8,2.1,2.3,3.5s0.9,2.7,0.9,4.3s-0.3,2.9-0.9,4.2s-1.3,2.5-2.3,3.5
			s-2.1,1.8-3.5,2.3s-2.7,0.9-4.3,0.9H364v-7.3h16.2c0.5,0,1-0.1,1.4-0.3s0.8-0.4,1.2-0.8s0.6-0.7,0.8-1.2s0.3-0.9,0.3-1.4
			s-0.1-1-0.3-1.4s-0.4-0.8-0.8-1.2s-0.7-0.6-1.2-0.8s-0.9-0.3-1.4-0.3h-7.3c-1.5,0-2.9-0.3-4.2-0.9s-2.5-1.4-3.5-2.3
			s-1.8-2.1-2.3-3.5S361.9,369.4,361.9,367.9z"/>
	</g>
	<path class="st6" d="M368.6,247.1V302c-18.7-5.9-28.9-2.9-38.9-6.9c-16.3-6.6-15.5-9.4-20.1-17.5c-4.6-8.1-2.8-11.7-2.8-13.7
		c0-25.6,18.4-70.7-17-94.3c1.3-4.8-0.8-12.5-4.1-24.9c-3.3-12.4-21.1-25.4-21.1-22.6c0,2.8-2,22.9-2,22.9s-4.3-11.4-9.9-15.2
		c-5.6-3.8-9.7-7.4-9.7-7.4l-0.3,21.6c0,0-14-1.8-21.9,4.3c-7.9,6.1-13.7,8.6-18.8,9.9c-5.1,1.3-16.9,0.4-20.8,2.7
		c-3.9,2.3-4.7,3.9-4.4,5.8c0.3,1.9,1,2.8,0.3,4.2c-0.8,1.4-5.2,6.4-5.1,12.1c0.1,5.7,1,7.3,1,7.3s-1.4,8.6,0,15.4
		c1.4,6.7,10.5,10.2,14.7,13.5c4.2,3.3,10.4,12.7,10.4,13.3c0,0.6,3.7-2.8-8,19.6c-11.7,22.4-11.7,42.7-11.2,56.4
		c0.2,6.3,0.6,21.7,1.7,38.7l-13.3-0.1c-4.3-18.5-2.6-36-1.4-54.8c0.8-13.3,1.6-27.7-2.1-40.6c-0.8-2.7-1.7-5.4-2.6-8
		c-2.4-0.6-5.1-1-7.9-0.7c-7.2,0.6-14.2,2.2-21.4,3.2c-14.5,2-29.7,5.1-44.4,3.8c-8.9-0.8-15.4-6.4-20.2-14
		c-7.9-12.9-18.3-22.6-28.9-33c-6.3-6.2-10.1-12.1-6.7-21.1c2.9-7.6,15.7-11.1,21.9-14.1c21.3-10.2,42.4-17.8,60.7-31.9
		c2.4-15.3,8.5-27.9,23.1-35.9c11.7-6.4,23.5-12.3,35.6-17.6c7.3-3.2,15.1-5.2,22.7-7.7c1.5-24.1,6.7-51.2,23.8-65.8
		c0.8-0.7,1.7-0.8,2.5-0.6c1.6-0.5,3.8,0.4,3.9,2.7c0.8,24.7,10.9,46,19.6,68.5c3.5,9,7.1,18.6,8,28.3c2.3,1.1,4.6,2.2,6.7,3.3
		c8.7,4.4,17.6,9.1,26,14.3c16.8,10.4,30.8,25.4,41.4,42.7c13.3,21.8,20.2,46.5,27.1,71.2C359.4,241.8,364.1,244.4,368.6,247.1z"/>
	<g>
	</g>
	<g>
	</g>
	<g>
	</g>
	<g>
	</g>
	<g>
	</g>
	<g>
	</g>
	<g>
	</g>
	<g>
	</g>
	<g>
	</g>
	<g>
	</g>
	<g>
	</g>
	<g>
	</g>
	<g>
	</g>
	<g>
	</g>
	<g>
	</g>
</g>
</svg>
