<?xml version="1.0" encoding="utf-8"?>
<!-- Generator: Adobe Illustrator 21.1.0, SVG Export Plug-In . SVG Version: 6.00 Build 0)  -->
<svg version="1.0" xmlns="http://www.w3.org/2000/svg" xmlns:xlink="http://www.w3.org/1999/xlink" x="0px" y="0px"
	 viewBox="0 0 400 57" style="enable-background:new 0 0 400 57;" xml:space="preserve">
<style type="text/css">
	.st0{display:none;}
	.st1{display:inline;}
	.st2{fill:#6F532A;}
	.st3{display:inline;fill-rule:evenodd;clip-rule:evenodd;fill:#6F532A;}
	.st4{fill:#FFFFFF;}
	.st5{fill-rule:evenodd;clip-rule:evenodd;fill:#FFFFFF;}
</style>
<g id="Capa_1" class="st0">
	<g class="st1">
		<path class="st2" d="M36.8,50.4h-7.3v-7.3H14.9v7.3H7.6V28.5c0-2,0.4-3.9,1.1-5.7s1.8-3.3,3.1-4.6c1.3-1.3,2.9-2.4,4.6-3.1
			c1.8-0.8,3.7-1.1,5.7-1.1c2,0,3.9,0.4,5.7,1.1c1.8,0.8,3.3,1.8,4.6,3.1s2.4,2.9,3.1,4.6s1.1,3.7,1.1,5.7V50.4z M29.5,35.8v-7.3
			c0-1-0.2-1.9-0.6-2.8S28,24,27.3,23.4s-1.4-1.2-2.3-1.6s-1.8-0.6-2.8-0.6c-1,0-1.9,0.2-2.8,0.6s-1.7,0.9-2.3,1.6s-1.2,1.4-1.6,2.3
			s-0.6,1.8-0.6,2.8v7.3H29.5z"/>
		<path class="st2" d="M72.3,32.1c0,1.7-0.2,3.3-0.6,4.8s-1,3-1.8,4.3C69,42.7,68,43.9,66.9,45c-1.1,1.1-2.3,2.1-3.7,2.9
			c-1.4,0.8-2.8,1.4-4.4,1.8s-3.2,0.6-4.8,0.6h-11V13.9h11c1.7,0,3.3,0.2,4.8,0.6s3,1,4.4,1.8c1.4,0.8,2.6,1.7,3.7,2.9
			c1.1,1.1,2,2.3,2.8,3.7c0.8,1.3,1.4,2.8,1.8,4.3S72.3,30.5,72.3,32.1z M65,32.1c0-1.5-0.3-2.9-0.9-4.2c-0.6-1.3-1.3-2.5-2.3-3.5
			s-2.1-1.8-3.5-2.3c-1.3-0.6-2.7-0.9-4.3-0.9h-3.6v21.8h3.6c1.5,0,2.9-0.3,4.3-0.9c1.3-0.6,2.5-1.3,3.5-2.3s1.8-2.1,2.3-3.5
			C64.7,35.1,65,33.7,65,32.1z"/>
		<path class="st2" d="M112.8,32.3c0,1.7-0.2,3.4-0.7,5c-0.4,1.6-1.1,3.1-1.9,4.5s-1.8,2.7-2.9,3.8c-1.2,1.2-2.4,2.1-3.8,3
			c-1.4,0.8-2.9,1.5-4.5,1.9c-1.6,0.4-3.3,0.7-5,0.7s-3.4-0.2-5-0.7s-3.1-1.1-4.5-1.9s-2.7-1.8-3.8-3c-1.2-1.2-2.1-2.4-3-3.8
			c-0.8-1.4-1.5-2.9-1.9-4.5c-0.4-1.6-0.7-3.3-0.7-5s0.2-3.4,0.7-5c0.4-1.6,1.1-3.1,1.9-4.5c0.8-1.4,1.8-2.7,3-3.8
			c1.2-1.2,2.4-2.1,3.8-2.9s2.9-1.4,4.5-1.9s3.3-0.7,5-0.7s3.4,0.2,5,0.7c1.6,0.4,3.1,1.1,4.5,1.9c1.4,0.8,2.7,1.8,3.8,2.9
			c1.2,1.2,2.1,2.4,2.9,3.8s1.4,2.9,1.9,4.5C112.5,28.9,112.8,30.6,112.8,32.3z M105.5,32.3c0-1.6-0.3-3.1-0.9-4.5s-1.4-2.6-2.5-3.7
			s-2.3-1.9-3.7-2.5c-1.4-0.6-2.9-0.9-4.5-0.9c-1.6,0-3.1,0.3-4.5,0.9c-1.4,0.6-2.6,1.4-3.7,2.5c-1,1-1.9,2.3-2.5,3.7
			s-0.9,2.9-0.9,4.5s0.3,3.1,0.9,4.5s1.4,2.6,2.5,3.7c1,1,2.3,1.9,3.7,2.5c1.4,0.6,2.9,0.9,4.5,0.9c1.6,0,3.1-0.3,4.5-0.9
			c1.4-0.6,2.6-1.4,3.7-2.5s1.9-2.3,2.5-3.7S105.5,33.9,105.5,32.3z"/>
		<path class="st2" d="M124.8,50.4h-7.3V13.9h14.6c1.3,0,2.6,0.2,3.9,0.5c1.2,0.3,2.4,0.8,3.5,1.5c1.1,0.6,2.1,1.4,2.9,2.3
			s1.7,1.9,2.3,3s1.1,2.2,1.5,3.5c0.3,1.2,0.5,2.5,0.5,3.9c0,2-0.4,3.9-1.1,5.6s-1.8,3.3-3.1,4.6s-2.9,2.4-4.6,3.1
			c-1.8,0.8-3.7,1.1-5.6,1.1h-7.3V50.4z M124.8,21.2v14.6h7.3c1,0,1.9-0.2,2.8-0.6c0.9-0.4,1.7-0.9,2.3-1.6s1.2-1.4,1.6-2.3
			s0.6-1.8,0.6-2.8s-0.2-1.9-0.6-2.8s-0.9-1.7-1.6-2.3s-1.4-1.2-2.3-1.6c-0.9-0.4-1.8-0.6-2.8-0.6H124.8z"/>
		<path class="st2" d="M165.9,50.4h-7.3V21.2h-10.9v-7.3h29.1v7.3h-10.9V50.4z"/>
		<path class="st2" d="M208.3,50.4H201v-7.3h-14.6v7.3h-7.3V28.5c0-2,0.4-3.9,1.1-5.7s1.8-3.3,3.1-4.6s2.9-2.4,4.6-3.1
			s3.7-1.1,5.7-1.1s3.9,0.4,5.7,1.1s3.3,1.8,4.6,3.1s2.4,2.9,3.1,4.6s1.1,3.7,1.1,5.7V50.4z M201,35.8v-7.3c0-1-0.2-1.9-0.6-2.8
			s-0.9-1.7-1.6-2.3s-1.4-1.2-2.3-1.6s-1.8-0.6-2.8-0.6s-1.9,0.2-2.8,0.6s-1.7,0.9-2.3,1.6s-1.2,1.4-1.6,2.3s-0.6,1.8-0.6,2.8v7.3
			H201z"/>
		<path class="st2" d="M280.1,50.4h-7.3V13.9h14.6c1.3,0,2.6,0.2,3.9,0.5s2.4,0.8,3.5,1.5s2.1,1.4,2.9,2.3s1.7,1.9,2.3,3
			s1.1,2.2,1.5,3.5s0.5,2.5,0.5,3.9c0,2-0.4,3.9-1.1,5.6s-1.8,3.3-3.1,4.6s-2.9,2.4-4.6,3.1s-3.7,1.1-5.6,1.1h-7.3V50.4z
			 M280.1,21.2v14.6h7.3c1,0,1.9-0.2,2.8-0.6s1.7-0.9,2.3-1.6s1.2-1.4,1.6-2.3s0.6-1.8,0.6-2.8s-0.2-1.9-0.6-2.8s-0.9-1.7-1.6-2.3
			s-1.4-1.2-2.3-1.6s-1.8-0.6-2.8-0.6H280.1z"/>
		<path class="st2" d="M331.2,50.4h-25V13.9h25v7.3h-17.7v7.3h12v7.3h-12v7.3h17.7V50.4z"/>
		<path class="st2" d="M351.6,50.4h-7.3V21.2h-10.9v-7.3h29.1v7.3h-10.9V50.4z"/>
		<path class="st2" d="M363.9,24.9c0-1.5,0.3-2.9,0.9-4.2s1.4-2.5,2.3-3.5s2.1-1.8,3.5-2.3s2.7-0.9,4.2-0.9h16.7v7.3h-16.7
			c-0.5,0-1,0.1-1.4,0.3s-0.8,0.4-1.2,0.8s-0.6,0.7-0.8,1.2s-0.3,0.9-0.3,1.4s0.1,1,0.3,1.4s0.4,0.8,0.8,1.2s0.7,0.6,1.2,0.8
			s0.9,0.3,1.4,0.3h7.3c1.5,0,2.9,0.3,4.3,0.9s2.5,1.3,3.5,2.3s1.8,2.1,2.3,3.5s0.9,2.7,0.9,4.3s-0.3,2.9-0.9,4.2s-1.3,2.5-2.3,3.5
			s-2.1,1.8-3.5,2.3s-2.7,0.9-4.3,0.9H366v-7.3h16.2c0.5,0,1-0.1,1.4-0.3s0.8-0.4,1.2-0.8s0.6-0.7,0.8-1.2s0.3-0.9,0.3-1.4
			s-0.1-1-0.3-1.4s-0.4-0.8-0.8-1.2s-0.7-0.6-1.2-0.8s-0.9-0.3-1.4-0.3h-7.3c-1.5,0-2.9-0.3-4.2-0.9s-2.5-1.4-3.5-2.3
			s-1.8-2.1-2.3-3.5S363.9,26.4,363.9,24.9z"/>
	</g>
	<path class="st3" d="M267.7,28.7c0,2.7-2.4,5-3.2,7.5c-0.8,2.5-0.3,5.8-1.8,7.9c-1.5,2.1-4.8,2.6-7,4.2c-2.1,1.5-3.6,4.5-6.1,5.4
		c-2.4,0.8-5.4-0.7-8.1-0.7c-2.7,0-5.6,1.5-8.1,0.7c-2.5-0.8-4-3.8-6.1-5.4c-2.1-1.5-5.4-2-7-4.2c-1.5-2.1-1-5.4-1.8-7.9
		c-0.8-2.4-3.2-4.8-3.2-7.5c0-2.7,2.4-5,3.2-7.5c0.8-2.5,0.3-5.8,1.8-7.9c1.6-2.1,4.8-2.6,7-4.2c2.1-1.5,3.6-4.5,6.1-5.4
		c2.4-0.8,5.4,0.7,8.1,0.7c2.7,0,5.6-1.5,8.1-0.7c2.5,0.8,4,3.8,6.1,5.4c2.1,1.5,5.4,2,7,4.2c1.5,2.1,1,5.4,1.8,7.9
		C265.3,23.7,267.7,26,267.7,28.7z M244.6,25.1c2.2,0.7,4.7-1.1,5.7-4.1c0.9-3-0.1-6-2.2-6.6c-2.2-0.7-4.7,1.1-5.7,4.1
		C241.4,21.4,242.4,24.4,244.6,25.1z M256.9,22.6c-2.1-0.7-4.5,1.2-5.5,4.2c-1,3,0,6,2,6.6c2.1,0.7,4.5-1.2,5.5-4.2
		C259.9,26.2,259,23.2,256.9,22.6z M238.3,25.3c2.1-0.6,2.9-3.6,1.9-6.7c-1-3.1-3.5-5-5.6-4.4c-2.1,0.6-2.9,3.6-1.9,6.7
		C233.7,23.9,236.2,25.9,238.3,25.3z M231.8,26.8c-1-3.1-3.6-5-5.6-4.4c-2.1,0.6-2.9,3.6-1.9,6.7c1,3.1,3.6,5,5.6,4.4
		C231.9,32.8,232.8,29.8,231.8,26.8z M241.9,26h-0.5c0,0-9.8,1.6-9.7,12.9c0,6.6,5.5,3.8,5.5,3.8s2.3-0.9,4.3-0.9l0.5-0.1
		c1.9,0,4.3,0.8,4.3,0.8s5.5,2.9,5.5-3.7C251.7,27.6,241.9,26,241.9,26z"/>
</g>
<g id="Capa_2">
	<g>
		<path class="st4" d="M36.8,50.4h-7.3v-7.3H14.9v7.3H7.6V28.5c0-2,0.4-3.9,1.1-5.7s1.8-3.3,3.1-4.6c1.3-1.3,2.9-2.4,4.6-3.1
			c1.8-0.8,3.7-1.1,5.7-1.1c2,0,3.9,0.4,5.7,1.1c1.8,0.8,3.3,1.8,4.6,3.1s2.4,2.9,3.1,4.6s1.1,3.7,1.1,5.7V50.4z M29.5,35.8v-7.3
			c0-1-0.2-1.9-0.6-2.8S28,24,27.3,23.4s-1.4-1.2-2.3-1.6s-1.8-0.6-2.8-0.6c-1,0-1.9,0.2-2.8,0.6s-1.7,0.9-2.3,1.6s-1.2,1.4-1.6,2.3
			s-0.6,1.8-0.6,2.8v7.3H29.5z"/>
		<path class="st4" d="M72.3,32.1c0,1.7-0.2,3.3-0.6,4.8s-1,3-1.8,4.3C69,42.7,68,43.9,66.9,45c-1.1,1.1-2.3,2.1-3.7,2.9
			c-1.4,0.8-2.8,1.4-4.4,1.8s-3.2,0.6-4.8,0.6h-11V13.9h11c1.7,0,3.3,0.2,4.8,0.6s3,1,4.4,1.8c1.4,0.8,2.6,1.7,3.7,2.9
			c1.1,1.1,2,2.3,2.8,3.7c0.8,1.3,1.4,2.8,1.8,4.3S72.3,30.5,72.3,32.1z M65,32.1c0-1.5-0.3-2.9-0.9-4.2c-0.6-1.3-1.3-2.5-2.3-3.5
			s-2.1-1.8-3.5-2.3c-1.3-0.6-2.7-0.9-4.3-0.9h-3.6v21.8h3.6c1.5,0,2.9-0.3,4.3-0.9c1.3-0.6,2.5-1.3,3.5-2.3s1.8-2.1,2.3-3.5
			C64.7,35.1,65,33.7,65,32.1z"/>
		<path class="st4" d="M112.8,32.3c0,1.7-0.2,3.4-0.7,5c-0.4,1.6-1.1,3.1-1.9,4.5s-1.8,2.7-2.9,3.8c-1.2,1.2-2.4,2.1-3.8,3
			c-1.4,0.8-2.9,1.5-4.5,1.9c-1.6,0.4-3.3,0.7-5,0.7s-3.4-0.2-5-0.7s-3.1-1.1-4.5-1.9s-2.7-1.8-3.8-3c-1.2-1.2-2.1-2.4-3-3.8
			c-0.8-1.4-1.5-2.9-1.9-4.5c-0.4-1.6-0.7-3.3-0.7-5s0.2-3.4,0.7-5c0.4-1.6,1.1-3.1,1.9-4.5c0.8-1.4,1.8-2.7,3-3.8
			c1.2-1.2,2.4-2.1,3.8-2.9s2.9-1.4,4.5-1.9s3.3-0.7,5-0.7s3.4,0.2,5,0.7c1.6,0.4,3.1,1.1,4.5,1.9c1.4,0.8,2.7,1.8,3.8,2.9
			c1.2,1.2,2.1,2.4,2.9,3.8s1.4,2.9,1.9,4.5C112.5,28.9,112.8,30.6,112.8,32.3z M105.5,32.3c0-1.6-0.3-3.1-0.9-4.5s-1.4-2.6-2.5-3.7
			s-2.3-1.9-3.7-2.5c-1.4-0.6-2.9-0.9-4.5-0.9c-1.6,0-3.1,0.3-4.5,0.9c-1.4,0.6-2.6,1.4-3.7,2.5c-1,1-1.9,2.3-2.5,3.7
			s-0.9,2.9-0.9,4.5s0.3,3.1,0.9,4.5s1.4,2.6,2.5,3.7c1,1,2.3,1.9,3.7,2.5c1.4,0.6,2.9,0.9,4.5,0.9c1.6,0,3.1-0.3,4.5-0.9
			c1.4-0.6,2.6-1.4,3.7-2.5s1.9-2.3,2.5-3.7S105.5,33.9,105.5,32.3z"/>
		<path class="st4" d="M124.8,50.4h-7.3V13.9h14.6c1.3,0,2.6,0.2,3.9,0.5c1.2,0.3,2.4,0.8,3.5,1.5c1.1,0.6,2.1,1.4,2.9,2.3
			s1.7,1.9,2.3,3s1.1,2.2,1.5,3.5c0.3,1.2,0.5,2.5,0.5,3.9c0,2-0.4,3.9-1.1,5.6s-1.8,3.3-3.1,4.6s-2.9,2.4-4.6,3.1
			c-1.8,0.8-3.7,1.1-5.6,1.1h-7.3V50.4z M124.8,21.2v14.6h7.3c1,0,1.9-0.2,2.8-0.6c0.9-0.4,1.7-0.9,2.3-1.6s1.2-1.4,1.6-2.3
			s0.6-1.8,0.6-2.8s-0.2-1.9-0.6-2.8s-0.9-1.7-1.6-2.3s-1.4-1.2-2.3-1.6c-0.9-0.4-1.8-0.6-2.8-0.6H124.8z"/>
		<path class="st4" d="M165.9,50.4h-7.3V21.2h-10.9v-7.3h29.1v7.3h-10.9V50.4z"/>
		<path class="st4" d="M208.3,50.4H201v-7.3h-14.6v7.3h-7.3V28.5c0-2,0.4-3.9,1.1-5.7s1.8-3.3,3.1-4.6s2.9-2.4,4.6-3.1
			s3.7-1.1,5.7-1.1s3.9,0.4,5.7,1.1s3.3,1.8,4.6,3.1s2.4,2.9,3.1,4.6s1.1,3.7,1.1,5.7V50.4z M201,35.8v-7.3c0-1-0.2-1.9-0.6-2.8
			s-0.9-1.7-1.6-2.3s-1.4-1.2-2.3-1.6s-1.8-0.6-2.8-0.6s-1.9,0.2-2.8,0.6s-1.7,0.9-2.3,1.6s-1.2,1.4-1.6,2.3s-0.6,1.8-0.6,2.8v7.3
			H201z"/>
		<path class="st4" d="M280.1,50.4h-7.3V13.9h14.6c1.3,0,2.6,0.2,3.9,0.5s2.4,0.8,3.5,1.5s2.1,1.4,2.9,2.3s1.7,1.9,2.3,3
			s1.1,2.2,1.5,3.5s0.5,2.5,0.5,3.9c0,2-0.4,3.9-1.1,5.6s-1.8,3.3-3.1,4.6s-2.9,2.4-4.6,3.1s-3.7,1.1-5.6,1.1h-7.3V50.4z
			 M280.1,21.2v14.6h7.3c1,0,1.9-0.2,2.8-0.6s1.7-0.9,2.3-1.6s1.2-1.4,1.6-2.3s0.6-1.8,0.6-2.8s-0.2-1.9-0.6-2.8s-0.9-1.7-1.6-2.3
			s-1.4-1.2-2.3-1.6s-1.8-0.6-2.8-0.6H280.1z"/>
		<path class="st4" d="M331.2,50.4h-25V13.9h25v7.3h-17.7v7.3h12v7.3h-12v7.3h17.7V50.4z"/>
		<path class="st4" d="M351.6,50.4h-7.3V21.2h-10.9v-7.3h29.1v7.3h-10.9V50.4z"/>
		<path class="st4" d="M363.9,24.9c0-1.5,0.3-2.9,0.9-4.2s1.4-2.5,2.3-3.5s2.1-1.8,3.5-2.3s2.7-0.9,4.2-0.9h16.7v7.3h-16.7
			c-0.5,0-1,0.1-1.4,0.3s-0.8,0.4-1.2,0.8s-0.6,0.7-0.8,1.2s-0.3,0.9-0.3,1.4s0.1,1,0.3,1.4s0.4,0.8,0.8,1.2s0.7,0.6,1.2,0.8
			s0.9,0.3,1.4,0.3h7.3c1.5,0,2.9,0.3,4.3,0.9s2.5,1.3,3.5,2.3s1.8,2.1,2.3,3.5s0.9,2.7,0.9,4.3s-0.3,2.9-0.9,4.2s-1.3,2.5-2.3,3.5
			s-2.1,1.8-3.5,2.3s-2.7,0.9-4.3,0.9H366v-7.3h16.2c0.5,0,1-0.1,1.4-0.3s0.8-0.4,1.2-0.8s0.6-0.7,0.8-1.2s0.3-0.9,0.3-1.4
			s-0.1-1-0.3-1.4s-0.4-0.8-0.8-1.2s-0.7-0.6-1.2-0.8s-0.9-0.3-1.4-0.3h-7.3c-1.5,0-2.9-0.3-4.2-0.9s-2.5-1.4-3.5-2.3
			s-1.8-2.1-2.3-3.5S363.9,26.4,363.9,24.9z"/>
	</g>
	<path class="st5" d="M267.7,28.7c0,2.7-2.4,5-3.2,7.5c-0.8,2.5-0.3,5.8-1.8,7.9c-1.5,2.1-4.8,2.6-7,4.2c-2.1,1.5-3.6,4.5-6.1,5.4
		c-2.4,0.8-5.4-0.7-8.1-0.7c-2.7,0-5.6,1.5-8.1,0.7c-2.5-0.8-4-3.8-6.1-5.4c-2.1-1.5-5.4-2-7-4.2c-1.5-2.1-1-5.4-1.8-7.9
		c-0.8-2.4-3.2-4.8-3.2-7.5c0-2.7,2.4-5,3.2-7.5c0.8-2.5,0.3-5.8,1.8-7.9c1.6-2.1,4.8-2.6,7-4.2c2.1-1.5,3.6-4.5,6.1-5.4
		c2.4-0.8,5.4,0.7,8.1,0.7c2.7,0,5.6-1.5,8.1-0.7c2.5,0.8,4,3.8,6.1,5.4c2.1,1.5,5.4,2,7,4.2c1.5,2.1,1,5.4,1.8,7.9
		C265.3,23.7,267.7,26,267.7,28.7z M244.6,25.1c2.2,0.7,4.7-1.1,5.7-4.1c0.9-3-0.1-6-2.2-6.6c-2.2-0.7-4.7,1.1-5.7,4.1
		C241.4,21.4,242.4,24.4,244.6,25.1z M256.9,22.6c-2.1-0.7-4.5,1.2-5.5,4.2c-1,3,0,6,2,6.6c2.1,0.7,4.5-1.2,5.5-4.2
		C259.9,26.2,259,23.2,256.9,22.6z M238.3,25.3c2.1-0.6,2.9-3.6,1.9-6.7c-1-3.1-3.5-5-5.6-4.4c-2.1,0.6-2.9,3.6-1.9,6.7
		C233.7,23.9,236.2,25.9,238.3,25.3z M231.8,26.8c-1-3.1-3.6-5-5.6-4.4c-2.1,0.6-2.9,3.6-1.9,6.7c1,3.1,3.6,5,5.6,4.4
		C231.9,32.8,232.8,29.8,231.8,26.8z M241.9,26h-0.5c0,0-9.8,1.6-9.7,12.9c0,6.6,5.5,3.8,5.5,3.8s2.3-0.9,4.3-0.9l0.5-0.1
		c1.9,0,4.3,0.8,4.3,0.8s5.5,2.9,5.5-3.7C251.7,27.6,241.9,26,241.9,26z"/>
	<g>
	</g>
	<g>
	</g>
	<g>
	</g>
	<g>
	</g>
	<g>
	</g>
	<g>
	</g>
	<g>
	</g>
	<g>
	</g>
	<g>
	</g>
	<g>
	</g>
	<g>
	</g>
	<g>
	</g>
	<g>
	</g>
	<g>
	</g>
	<g>
	</g>
</g>
</svg>
