<?xml version="1.0" encoding="utf-8"?>
<!-- Generator: Adobe Illustrator 21.0.0, SVG Export Plug-In . SVG Version: 6.00 Build 0)  -->
<svg version="1.1" xmlns="http://www.w3.org/2000/svg" xmlns:xlink="http://www.w3.org/1999/xlink" x="0px" y="0px"
	 viewBox="0 0 400 400" style="enable-background:new 0 0 400 400;" xml:space="preserve">
<style type="text/css">
	.st0{fill-rule:evenodd;clip-rule:evenodd;fill:#6F532A;}
</style>
<g id="Capa_2">
</g>
<g id="Capa_1">
	<path class="st0" d="M370.3,144.4c-6.1-18.9-2-43.1-13.4-58.8c-11.5-15.8-35.9-19.3-51.8-30.8c-15.7-11.4-26.5-33.6-45.4-39.8
		c-18.2-5.9-39.9,5.5-60,5.5c-20.2,0-41.9-11.4-60.1-5.5c-18.8,6.2-29.7,28.4-45.3,39.8C78.5,66.2,54,69.8,42.5,85.6
		c-11.4,15.8-7.3,40-13.4,58.8c-5.9,18.1-23.7,35.3-23.7,55.4c0,20.2,17.8,37.3,23.7,55.5c6.1,18.8,2,43,13.4,58.8
		c11.5,15.8,36,19.4,51.8,30.9c15.7,11.4,26.5,33.6,45.3,39.8c18.2,5.8,39.9-5.6,60.1-5.6c20.2,0,41.9,11.4,60,5.6
		c18.9-6.2,29.7-28.4,45.4-39.8c15.8-11.5,40.3-15,51.8-30.9c11.4-15.8,7.3-40,13.4-58.8c5.9-18.2,23.7-35.3,23.7-55.5
		C394,179.7,376.3,162.5,370.3,144.4z M349.8,311c-17.8-5.7-27.6-2.7-37.1-6.6c-15.5-6.3-14.8-9-19.2-16.8
		c-4.4-7.8-2.7-11.2-2.7-13.1c0-10.4,3.2-24.2,4.2-38.3c1.4-19.1-1-38.8-20.5-51.8c0.3-1.1,0.4-2.4,0.3-3.9
		c-0.2-4.6-1.8-10.9-4.2-19.9c-1.2-4.6-4.5-9.2-8-13c-5.7-6.1-12.1-10.2-12.1-8.6c0,2.7-1.9,21.9-1.9,21.9s-4.1-10.9-9.5-14.6
		c-5.3-3.6-9.2-7-9.2-7l-0.3,20.6c0,0-12.5-1.6-20.1,3.6c-0.3,0.2-0.5,0.3-0.8,0.5c-7.5,5.8-13.1,8.3-18,9.5
		c-3.5,0.9-10.3,0.7-15.2,1.3c0,0,0,0,0,0c-1.1,0.3-2.2,0.6-3.4,0.7c0,0,0,0,0,0c-0.5,0.2-0.9,0.3-1.3,0.5c-3.8,2.2-4.5,3.8-4.3,5.6
		c0.3,1.8,1,2.7,0.3,4c-0.7,1.3-4.8,5.9-4.9,11.2v0.3c0.1,5.5,1,7,1,7s-1.3,8.3,0,14.7c1.3,6.4,10.1,9.7,14.1,12.9
		c4,3.2,10,12.2,10,12.8c0,0.6,3.5-2.7-7.7,18.7c-7.7,14.7-10.1,28.6-10.7,40c-0.3,5.2-0.2,9.8,0,13.9c0.2,6.1,0.6,20.7,1.6,37
		l-12.7-0.1c-3.7-15.7-2.8-30.7-1.7-46.4c0.1-2,0.3-3.9,0.4-5.9c0.8-12.7,1.5-26.4-2-38.8c-0.7-2.6-1.6-5.1-2.5-7.7
		c-2.3-0.6-4.8-0.9-7.6-0.7c-5.6,0.5-11.1,1.6-16.6,2.5c-1.3,0.2-2.5,0.4-3.8,0.6c-13.8,1.9-28.4,4.9-42.4,3.6
		c-8.5-0.8-14.8-6.1-19.3-13.4c-7.6-12.4-17.5-21.6-27.6-31.5c-6-5.9-9.7-11.6-6.4-20.1c2.8-7.3,15-10.6,20.9-13.5
		c6.7-3.2,13.3-6.1,19.8-9.1c11.9-5.4,23.4-10.9,34-18.3c1.4-1,2.8-2,4.2-3c2.3-14.7,8.1-26.7,22-34.3c0.7-0.4,1.4-0.8,2.1-1.1
		c10.4-5.7,21.1-10.9,31.9-15.7c2.7-1.2,5.4-2.2,8.1-3.1c4.5-1.5,9-2.8,13.5-4.3c1.4-23,6.4-48.9,22.7-62.9c0.8-0.7,1.6-0.8,2.4-0.6
		c1.6-0.5,3.6,0.3,3.7,2.6c0.8,22.2,9.3,41.4,17.1,61.4c0.5,1.3,1.1,2.7,1.6,4c3.3,8.7,6.8,17.8,7.6,27c2.2,1.1,4.4,2.1,6.4,3.1
		c6.5,3.3,13,6.7,19.4,10.3c1.9,1.1,3.7,2.2,5.5,3.3c7.6,4.7,14.5,10.4,20.9,16.8c7.1,7.2,13.3,15.3,18.7,24
		c5.9,9.6,10.5,19.8,14.3,30.4c4.5,12.3,8,25,11.6,37.7c4.4,2.6,8.9,5.1,13.2,7.7V311z"/>
	<path class="st0" d="M175.5,177.7c-1.1,0.3-2.2,0.6-3.4,0.7C173.1,178.1,174.2,177.9,175.5,177.7z"/>
	<g>
	</g>
	<g>
	</g>
	<g>
	</g>
	<g>
	</g>
	<g>
	</g>
	<g>
	</g>
	<g>
	</g>
	<g>
	</g>
	<g>
	</g>
	<g>
	</g>
	<g>
	</g>
	<g>
	</g>
	<g>
	</g>
	<g>
	</g>
	<g>
	</g>
</g>
</svg>
