<?xml version="1.0" encoding="utf-8"?>
<!-- Generator: Adobe Illustrator 21.1.0, SVG Export Plug-In . SVG Version: 6.00 Build 0)  -->
<svg version="1.0" xmlns="http://www.w3.org/2000/svg" xmlns:xlink="http://www.w3.org/1999/xlink" x="0px" y="0px"
	 viewBox="0 0 400 400" style="enable-background:new 0 0 400 400;" xml:space="preserve">
<style type="text/css">
	.st0{display:none;}
	.st1{display:inline;fill-rule:evenodd;clip-rule:evenodd;fill:#272425;}
	.st2{fill-rule:evenodd;clip-rule:evenodd;fill:#272425;}
</style>
<g id="Capa_1" class="st0">
	<path class="st1" d="M101.9,162.8c-0.7,0.6-15.2-0.4-26.2,30.3c-10.9,30.7-3.5,29.9-10.9,52.9c-7.4,23.1-10.8,31.3-23.5,39.8
		c-12.7,8.4-19.2,4.4-25.6,2.8c-6.4-1.6-9-3.3-9.8,0.3c-0.7,3.5,7.5,9.8,16.1,12.3c8.6,2.5,31.2-2.5,40.8-17
		c9.6-14.5,17.7-32.1,22.6-47.1c4.9-15.1,4.9-30.3,4.9-30.3s10.8,17.3,18.2,25.7c7.4,8.4,10.9,7.4,9.6,14.9
		c-1.3,7.5-12.6,21.7-12.4,27.2c0.1,5.5,14.2,21.9,20.8,31.6c6.7,9.8,12.4,15.4,13.7,15.7c1.3,0.3,4-0.3,8.1,0.2
		c4.1,0.5,5.3,0.4,6.7-0.2c1.3-0.7,0.9-1,2.2-0.9c1.3,0.1,1.5,1.3,3.3,0.2c1.8-1,1.7-1.3,2.2-1.6c0.5-0.4,1.6,0.7,1.8-1.2
		c0.2-1.9-0.7-3.8-3.7-6.4c-3-2.6-5.2-3.8-8.3-3.7c-3.1,0.1-5.2,0.1-6.2-0.8c-1-0.9-13.6-8.5-13.4-18.7c0.1-6.8,1.2-8.6,2.8-9.8
		c4.1,5.5,8.6,11.2,11.6,15.6c6.7,9.8,12.4,15.4,13.7,15.7c1.3,0.3,4-0.3,8.1,0.2c4.1,0.5,5.3,0.4,6.7-0.2c1.3-0.7,0.9-1,2.2-0.9
		c1.3,0.1,1.5,1.3,3.3,0.2c1.8-1,1.7-1.3,2.2-1.6c0.5-0.4,1.6,0.7,1.8-1.2c0.2-1.9-0.7-3.8-3.7-6.4c-3-2.6-5.2-3.8-8.4-3.7
		c-3.1,0.1-5.2,0.1-6.2-0.8c-1-0.9-13.6-8.5-13.4-18.7c0.1-10.2,2.5-9.2,5.5-11.7c3-2.5,18.3-11.1,27.8-23.5c1.4-1.8,2.5-3.5,3.5-5
		c5.2,0.4,12,0.5,21,0.3c30.7-0.9,45.2-8.3,45.2-8.3s3.3,9,3,10c-0.3,1-2.7,1.6-2.7,15.7c0,14,0.3,22.9-2.1,28.4
		c-2.4,5.5-2.2,6.9-0.6,9.5c1.6,2.5,2.7,4.3,3,5.9c0.3,1.6,4,10.3,5.8,12.4c1.8,2.1,7.1,1,10.3,1.6c3.3,0.7,4.7,1.2,6,0.4
		c1.3-0.8,1.8-0.1,3.3-0.9c1.6-0.7,4.1-2.9,3.1-5.5c-1-2.5-2.5-4.1-6.4-4.7c-3.9-0.7-7.3-0.4-8.3-1.6c-1-1.2-4.1-7.8-2-15.6
		c0.1-0.4,0.2-0.8,0.3-1.2c1.1,1.8,1.8,3.1,2,4.4c0.3,1.6,4,10.3,5.8,12.4c1.8,2.1,7.1,1,10.3,1.6c3.3,0.7,4.7,1.2,6,0.4
		c1.3-0.8,1.8-0.1,3.3-0.9c1.6-0.7,4.1-2.9,3.1-5.5c-1-2.5-2.5-4.1-6.4-4.7c-3.9-0.7-7.3-0.4-8.3-1.6c-1-1.2-4.1-7.8-2-15.6
		c2.1-7.8,4.4-27.2,14.5-38.4c10.1-11.2,13.9-23.6,19.5-30.4c1.5-1.8,2.4-3.6,3.1-5.3c4.7-4.4,9-9.2,11.4-15.2
		c5.5-13.6,4-17.3,15.8-26.2c11.8-8.9,15.5-10.1,20.7-9.3c5.2,0.7,8.8,1.8,14.1,0.9c5.3-0.9,8.5-8.3,8.5-8.3s1.6-0.4,2.8-2.6
		c1.3-2.1-1.6-5.7-3.4-9.6c-1.8-3.9-1.6-4.1-1-10.1c0.6-5.9-3.4-8.9-9-14.3c-5.6-5.5-9-8.4-9-8.4s0.9-2.7,3.6-6.2
		c2.7-3.5,3.6-4.8,3.3-4.8c-0.4,0-2.9,0.4-5.6,0.6c-2.6,0.1-2.9,0.5-3,0.5c0.1-0.1,2.9-4.2,2.4-6.9c-0.5-2.8-1-3.1-1-3.1
		s-9.6,7.3-13.7,10c-4.1,2.7-8.9,4.5-10.3,6.3c-1.4,1.8-1.8,2.6-1.8,2.6s-11.7-1.6-20.3,7.2c-8.6,8.7-18.5,20.1-27.8,24.7
		c-9.3,4.6-14,8.6-33,15.1c-18.9,6.5-33.4,2.1-57.3,5.6c-23.9,3.5-35.8,5.6-56.5,3.3c-20.7-2.4-35.6,3.8-40.6,6.1
		C104.6,160.1,101.9,162.8,101.9,162.8z"/>
</g>
<g id="Capa_2" class="st0">
	<path class="st1" d="M148.5,220.6c-1.2,1.5-3.6,2.4-7.2,2.6c-3.7,0.2-5.7,0.4-5.7,0.4s3.1-6.8,2.1-12.5c-1-5.7-0.8-6.7-3.4-6.4
		c-2.6,0.2-11.6,4.5-11.6,4.5s-8.1-2.5-8.3-2.9c-0.2-0.4-0.1-5.3-4-8.6c-3.9-3.2-5.6-3.3-5.6-3.3s-4.8,1.5-7.4,5
		c-2.6,3.4-3.6,5.7-3.6,5.7s-11.3-0.4-18.2,4.2c-6.9,4.5-10.2,12.5-13.9,17.5c-3.7,5-8.7,6.5-9.7,8.2c-1.1,1.7,0.2,4.3,0.5,5.2
		c0.2,1-0.1-0.2,0.4,1.9c0.5,2.1,2.4,4.2,3.3,5.1c1,1,0.4,1.9,0.5,2.8c0.2,1,0.5,1.5,0.5,1.5s0.3-3.7,0.6-3.7c0.3,0,3.3,0.4,3.3,0.7
		c0,0.3,0.8,3.7,0.8,3.5c0-0.2,0.3-2.8,0.6-3.1c0.3-0.3,0.1-0.4,0.4-0.3c0.3,0.1,4.7-0.4,6.4-0.1c1.7,0.3,2.9,0.6,2.9,0.6
		s5.7,3.8,4.9,8c-0.8,4.2-8.2,9-8.2,9s-1.8,0.1-2.9-0.5c-1.1-0.6-2.1-1.2-2.1-1.2s0.9,2.2,1.8,3.1c0.8,0.9,1.1,1.2,1.1,1.2
		s0.4,2.2,3.3,4.7c3,2.5,6.3,1.5,9.1,0c2.8-1.5,9.9-4.9,11.2-4.6c1.3,0.2,12.2,21.5,17.5,31c5.2,9.5,15,14.7,13.8,15.7
		c-1.2,1-26.6,20.4-33.6,24.2c-7,3.8-14.4,5.5-17.6,4.8c-3.2-0.7-5.8-1.4-8.7-0.5c-2.8,1-4.5,2.6-5.6,3.6c-1.1,1-3.7,2.4-2.1,5.3
		c1.5,3,2.6,5.1,9.9,5.7c7.2,0.6,15.8,1.7,19.8,0.6c4-1.1,10.1-4.4,12.4-4.3c2.3,0.1,3.7,1.7,5.1,0.5c1.4-1.2,1.7-1.2,1.7-1.2
		s20.8-9.6,34.6-15.3c12.9-5.3,22.1-9.4,26.7-12.7c-2.2,9.1-7.7,19.4-21.5,23.7c-27,8.6-14.4,5.5-17.6,4.8c-3.2-0.7-5.8-1.4-8.7-0.5
		c-2.9,1-4.5,2.6-5.6,3.6c-1.1,1-3.7,2.4-2.1,5.3c1.5,3,2.6,5.1,9.9,5.7c7.2,0.6,15.8,1.7,19.8,0.6c4-1.1,10.1-4.4,12.4-4.3
		c2.3,0.1,3.7,1.7,5.1,0.5c1.4-1.2,1.7-1.2,1.7-1.2s13.9-8,26-16.7c9-6.5,22.6-27.5,26.7-39.2c8.7-5.9,17.6-13.4,22-15.7
		c5.5-2.9,8.3-2.6,8.3-2.6s6.4,27.3,6.7,34.9c0.2,7.6-15,24.5-17.8,26.5c-2.9,2-6.9,0.4-9-0.1c-2.1-0.5-9.9,2.4-10.7,4.5
		c-0.8,2.1,2.5,5.8,2.5,5.8s-0.8,2.3,1.9,3.9c2.7,1.7,14.5,2.7,19.5,1c5-1.8,6.7-3.7,6.7-3.7s15.1-11.6,22.7-20.9
		c7.6-9.3,10.2-11.9,10.2-11.9s20.9,11.2,21.9,14.7c0.9,3.6-11.2,27.8-14.5,31.1c-3.3,3.3-3.8,2.9-7.6,2.4c-3.8-0.5-6.9-3.1-9.5-0.2
		c-2.6,2.8-1.7,4.5-2.4,6.2c-0.7,1.7-3.8,1.7-1.4,5.2c2.4,3.6,17.1,4.3,23.3,4.5c6.2,0.2,12.1-1.4,14.5-5.9
		c2.4-4.5,24.9-47.3,24.9-52.3c0-5-4.3-9.3-5.5-10.5c-1.2-1.2-19.5-24.2-13.8-41.3c5.7-17.1,7.8-12.4,14.3-29.2
		c6.4-16.9,9.5-35.4,5-47.7c-4.5-12.4-6.9-16.4-6.9-16.4s27.1-28.4,32.5-84.6c2.4-24.3-0.5-43.7-17.1-65.1
		C313.9,19.6,283,7.8,278.8,6.8c-4.3-1-17-3.3-6.7,9.5c10.3,12.8,37.7,27.1,40.4,61.5c3.4,44.3-14.6,98.6-19,99
		c-4.8,0.5-21.1-11.9-41.8-15.2c-20.7-3.3-62.9,4-78.9,17.6C156.9,192.8,148.5,220.6,148.5,220.6z"/>
</g>
<g id="Capa_3">
	<path class="st2" d="M266.9,146L266.9,146L266.9,146z M121.5,155.9c11.1-1.6,65-12.6,91.2-12.3c26.2,0.3,48.4,0.5,48.4,0.5
		c1.2,0.1,3.3,0.8,5.9,1.9c13.1,3.2,65.7,10,84.9,5c26.7-6.9,35.1-42.6,8.4-49.9c-12.1-3.3-4.8-19.8,13.8-9.7
		c12.9,7,22.5,18.9,20.8,33.5c-6.2,52.2-54.2,48.4-92,48.7c2.4,11.6,0.7,31.9,6.1,45.1c6.9,16.7,19.3,24.1,22.8,26.7
		c3.4,2.6,12.7,33.1,14.4,37.7c1.7,4.6-2.9,25.5-5.4,29c-2.5,3.4-14,4.8-15.6,3.3c-1.6-1.5-1.5-1.5,0-4.2c1.5-2.8,2.9-5.8,3.7-11.1
		c0.8-5.3-4-23-5.4-26.9c-1.5-3.8-25.3-9.5-36.9-15.1c-11.6-5.6-22.5-14.3-22.8-13c-0.3,1.3,0.8,22.8,1.6,27.5
		c0.8,4.8-7.9,12.7-16.4,19.9c-8.5,7.1-8.7,15.1-15.1,16.4c-6.4,1.3-15.6,0-19.3-0.8c-3.7-0.8-5.6,2.9-7.7-1.3
		c-2.1-4.2,1.6-7.7,4.8-9.8c3.2-2.1,11.1-5,15.1-9.3c4-4.2,10.9-10.9,9.8-14c-1.1-3.2-11.1-13-13.2-21.4c-2.1-8.5-3.2-14.3-3.2-14.3
		s-26.7,1.1-39.4,4.2c-12.7,3.2-37.1,2.9-37.1,2.9s3.7,6.4,6.4,11.1c2.6,4.8,9,15.1,6.1,20.6c-2.9,5.6-15.6,28.1-22.5,30.7
		c-6.9,2.6-12.4,0.8-16.4,0.8c-4,0-6.4-1.1-4.2-4.8c2.1-3.7,4.8-4.2,7.1-5c2.4-0.8,5-1.1,6.9-4.2c1.9-3.2,3.4-11.4,3.4-16.4
		c0-5-13.5-16.9-19.3-24.1c-5.8-7.1-7.7-11.4-7.7-11.4s-1.9,15.4-4,20.9c-2.1,5.6-15.9,16.7-24.6,22.8c-8.7,6.1-10.1,13.5-12.7,14.6
		c-2.6,1.1-11.1,2.8-14.6,1.7c-3.4-1.1-6.2-3.2-3-6.6c3.2-3.4,7.7-5.6,10.2-7.5c2.5-2,19.1-25.3,20.6-35.3
		c1.6-10.1,2.1-16.1,0.8-22.2c-1.3-6.1-2.4-7.7-2.4-7.7s-9.3-9-13.1-11.9c-3.8-2.9-24.2-6.1-28.6-3.6c-4.4,2.5-5.3,4.8-10.9,2.1
		c-5.6-2.6-10.3-8.4-11.6-9.7c-1.3-1.3-1.1-0.7-2.3-1.7c-1.1-0.9-1.3-1.1-1.1-2.3c0.3-1.1,7.2-12.4,8-16.8c0.8-4.4-0.3-4.2,2.4-8
		c2.7-3.8,13.6-11.9,13.3-12.4c-0.3-0.5-3-5.1-3-6.7c0-1.6,10.3,1.1,10.3,1.1s-1.7-2.3-1.3-5.4c0.4-3.2,1.2-5,1.7-5
		c0.5-0.1,7.7,4.9,9.9,7.4c2.2,2.5,3.1,3.5,3.4,3.6c0.3,0.1,18.8,7.1,30,6.9C92.2,160.7,110.3,157.5,121.5,155.9z"/>
</g>
<g id="Capa_4" class="st0">
	<path class="st1" d="M110,153.4c2.7,4.9,2.3,6.5,12,10.5c9.7,4,19.8-3.3,51.5,19.5c31.7,22.8,42,62.4,52.1,77.6
		c10,15.2,10,36.2,10,36.2s26.8,16.7,46,15.5c19.2-1.2,21.3-10.7,44.2-14.9c22.8-4.3,31.7-2.7,47.5,2.1c15.8,4.9,21,13.1,21,13.1
		s-31.1-8.8-52.4,6.1c-21.3,14.9-33.8,22.2-57.9,19.5c-24.1-2.7-52.4-11-52.4-11s-10.4,6.9-18.7,6.2c-8.4-0.6-41.1-1.4-42-1.7
		c-0.9-0.3-2.1-0.5-10.4,1.7c-8.2,2.1-65.5,0.3-69.9,0.2c-4.4-0.2-8.2,0.8-11.1-3.3c-0.2-0.3-0.4-0.6-0.5-0.9
		c-2.1,2.3-4.6,1.9-8.9,2.7c-5,0.9-9.8,0.3-11.8,0.7c-2,0.4-6.7-0.4-6.7-0.4s-5.8,0.4-7.2-1.1c-0.1-0.1-0.2-0.2-0.3-0.3
		c-2.1,1.1-4.6,0.9-8.3,1.6c-5.6,1.1-11.1,0.3-13.4,0.8c-2.3,0.5-7.6-0.5-7.6-0.5s-6.5,0.5-8.2-1.2c-1.7-1.7-0.2-2.3-0.2-4.7
		s1.8-7.6,7-10.5c5.2-2.9,7.2,1.2,10.8-1.8c3.7-3,14-30,15.8-38.7c1.8-8.7,3.5-26,3.5-26s-1.2-8.2-6.1-22.5
		c-4.9-14.3-5.5-47.8-5.8-56c-0.3-8.2-0.3-20.4,6.7-33.8c7-13.4,4.8-11.3,4.8-11.7c0-0.4-3.7-6-6.2-8c-2.5-2-8-4-8.8-8.1
		c-0.8-4,0-9.2,0-9.2s-0.6-1-0.6-4.4c0-3.4,2.6-6.4,3.1-7.2c0.5-0.8,0-1.4-0.2-2.5c-0.2-1.1,0.3-2.1,2.7-3.5
		c2.4-1.4,9.4-0.8,12.5-1.6c3-0.8,6.5-2.3,11.3-5.9c4.7-3.7,13.1-2.6,13.1-2.6l0.2-12.9c0,0,2.4,2.1,5.8,4.4
		c3.3,2.3,5.9,9.1,5.9,9.1s1.2-12,1.2-13.7c0-1.7,10.7,6.1,12.6,13.6c2,7.5,3.2,12,2.4,14.9c21.2,14.2,10.2,41.2,10.2,56.5
		C108.3,146.4,107.3,148.6,110,153.4L110,153.4z M89.7,314.3c1.8-0.7,3.3-0.8,6.5-1.1c5.2-0.6,21.6-0.2,21.6-0.2s-3.7-2.6-8.1-9.3
		c-4.4-6.7-2.4-4.9-6.7-9.6c-0.1-0.1-0.2-0.2-0.3-0.3c-2.9,4.3-6.4,10.7-9.4,15.2C91.8,311.3,90.6,313,89.7,314.3L89.7,314.3z
		 M75.2,274.9c-3.5,3.3-8.4,24.5-13,31.4c-4.3,6.4-5.9,8.6-8.1,11.1c2.2,0.1,3.7,1.2,5.9-0.6c3.2-2.7,12.3-26.4,13.9-34
		C74.3,280.6,74.8,277.8,75.2,274.9z"/>
</g>
<g id="Capa_5" class="st0">
	<path class="st1" d="M18.7,131.4l-0.3-3.1C18.4,128.3,20,134.8,18.7,131.4L18.7,131.4z M84.9,248.8c-4.9,2.6-13.3,3.6-19.8,3.7
		c-8.2,0.2-16.8,4.3-19.8,9.6c-2.9,5.3-12.3,26.1-12.2,29.5c0,3.3,2.3,12.1,4,13c1.7,0.9,2.6,0.6,5.4,0.4c2.8-0.3,4.1,0.9,5.9-2.1
		c1.8-3,4.9-6.7,4.6-11.2c-0.3-4.5-1.7-4.9,0.3-8c2.1-3.1,5-6.3,6.4-7.3c1.4-1,19,2.4,31.5,2.4c0.5,0,1,0,1.5,0
		c-0.2,7.1-0.6,13.8-0.5,16.9c0.2,7.4-0.9,12.5-4.2,19.9c-3.2,7.4-4,5.9-8.3,8c-4.4,2.1-4.4,0.4-10.8,1.5c-6.5,1.1-4,1.7-6.5,5.1
		c-2.5,3.4,1.1,4.7,3.6,7c2.5,2.3,6.6,0.8,12.1,1.1c5.5,0.4,14.4-0.4,19.5-4.9c5.1-4.6,6.3-7,7.4-7.6c1.1-0.6,3.2-0.8,3.2-3.6
		c0-2.8,2.3-6.6,7.2-18.4c3.5-8.2,3.6-22.6,3.7-33.6c2-4.3,4.7-10.2,7.2-15.5c10.1-0.8,27.8,4.1,27.8,4.1s5.7,0,18.6,2.5
		c12.9,2.5,53.3,1.3,53.3,1.3s6.3,10.2,13.1,18.6c6.8,8.3,10.1,19.2,6.6,24.3c-3.4,5.1-13.5,12.3-20.3,15
		c-6.8,2.7-13.1,0.9-17.8,1.9c-4.7,0.9-5.7,3.4-7.4,8.2c-1.7,4.7,2.1,3,2.1,3s0.8,1.9,2.3,3.2c1.5,1.3,6.1,0.2,10.4-0.8
		c4.4-0.9,3,0.4,4.2,0.9c1.1,0.6,19.2-0.8,23.7-3.2c4.6-2.5,33-21.8,35.7-27.7c2.7-5.9-4.9-15.4-6.3-23.5
		c-1.3-8.2,6.1-30.4,6.1-30.4s26.9,14.2,30.2,16.9c3.2,2.7,4.9,8,4.7,13.1s-8.7,27.7-11.2,32.4c-2.5,4.7-4.4,3-7.6,6.1
		c-3.2,3-5.9,7.4-2.5,10.1c3.4,2.7,15.6,1.9,20.9-4.9c5.3-6.8,7-14.7,13.1-24.9c6.1-10.2,12.7-22.9,15-27.8
		c2.3-4.9-4.2-11.4-8.3-16.3c-4.2-4.9-23.9-14.8-25-18.2c-1.1-3.4,1.9-11.4,2.3-24.7c0.4-13.3-9.5-23.9-9.5-23.9s11.8-5.1,26.6-12
		c62.7-28.9,29.7-79.5,33.6-97.5c2.3-10.6,18.2-7.8,26.9-5.6c8.7,2.3,9.5-2.8,3.6-7.2c-5.9-4.4-22.4-8.7-33.8-3.8
		c-28.6,12.4,29.1,86.3-54.6,102.1c-20.1,3.8-24.3,3-41,3c-16.7,0-50.8-6.5-93.3-6.8c-42.5-0.4-52.9,1.9-58.2,0
		c-5.3-1.9-14.6-11.4-25.4-22.4c-10.8-11-17.6-12.3-19.7-16.7c-2.1-4.4-10.2-12-13.9-16.1c-3.6-4.2-4.7-1.9-9.1,3.2
		c-4.3,5.1-5.5,12.5-5.5,12.5s-1.3-1.7-6.3-4.7c-4.9-3-14-6.5-14-6.5s-3.6,1.9,0.6,14.4c0.9,2.7,1.5,4.3,1.8,5.2l0.5,5.4
		c0,0-0.9,2.7-3.2,6c-2.4,3.3-3.4,5.4-5.4,12.8c-2,7.4-0.3,18.5-0.4,22c-0.1,3.5-5.2,14.3-4.1,17c1.1,2.7,2.5,1.7,3.3,2.2
		c0.9,0.5,0.7,1.2,2.2,2.9c1.5,1.7,6.9,1.8,6.9,1.8s0.9,2.3,6.7,3.5c5.8,1.2,16.8-5.5,20.2-6.5c3.4-0.9,8-1.9,12.3,1.9
		c0,0,2.8,2.2,7,9.8c4.2,7.6-0.9,17.3,3.8,23.3c4.7,6.1,3,1.3,7.6,6.1C78.9,242.4,82,245.6,84.9,248.8z"/>
</g>
<g id="Capa_6" class="st0">
	<path class="st1" d="M274.1,115.3c-8.2,15.5-8.9,54.8-16.8,58.7c0,0-10.8-1.4-22.7,0.9c-11.9,2.3-22.4,4-45.2,9.9
		c-22.8,5.9-33.3,10.9-48.5,18.5c-15.2,7.6-15.5,8.9-29.7,19.8C97,234,80.5,263,71.3,273.6c-9.2,10.6-23.1,12.5-35,12.9
		c-11.9,0.3-15.2-13.9-18.1-17.5c-3-3.6-8.6-5.6-11.5,3c-3,8.6,5.3,26.4,20.5,31.3c15.1,4.9,31.4,6,53.8-8.5
		c22.4-14.5,27.4-35.7,34.6-36.7c7.3-1,6.9,7.6,6.9,7.6s2.1,2.6,2.1,5.1c0,2.5-2,10.4-0.3,13.2c1.6,2.8,2,6.9,1.5,9.6
		c-0.5,2.6,0.7,7.8-0.8,11.4c-1.5,3.6-7.1,6.8-4.9,11.4c2.1,4.6,10.1,8.1,15.3,9.6c5.3,1.5,56,4.1,59.2,4c3.2-0.1,5.7-3.6,6.5-6.6
		c7.8,1.4,17.4,2.5,19.1,2.3c2.6-0.4,4.9-0.7,6.2-1.1c1.2-0.4,0.9-1.2,2.2-2.1c1.3-0.9,1.6-1.2,3.6-4.5c2-3.3-9.1-8.2-17.7-7.8
		c-8.6,0.5-11.7-4.5-13.5-7.3c-1-1.5-1.8-5-2.3-8.7c8.6-0.5,24.3-1.8,38-5.5c8-2.2,19.1-6.4,29.6-10.6c2.8,4.5,6.9,10.8,10.3,14.7
		c5.6,6.4,11.1,14.4,17,18.5c5.9,4.1,11.5,4.9,15.7,8.2c4.1,3.3,4,5.4,6.1,8.1c2.1,2.6,6.1,4.1,10.1,5.1c4,1,5.1,0,7.6-0.5
		c2.5-0.5,4,1.2,7.3-0.2c3.3-1.3,4.9-1.8,4.3-5.1c-0.7-3.3-5.6-4.9-10.6-8.2c-4.9-3.3-28.4-22.4-31.3-28.7c-1.9-4-2-12.6-1.3-20.9
		c12,9,40.6,36.6,41.2,40.7c0.8,4.9,16.3,13.2,24.2,17.5c7.9,4.3,14,2.3,18.1,1.2c4.1-1.2,5.8-2.1,7.4-2.1c1.6,0,3.8-6.4,2.1-9.7
		c-1.6-3.3-6.6-4.3-11.7-5.9c-5.1-1.6-5.8-2.8-11.7-8.7c-5.9-5.9-26.7-45.7-30-51.8c-3.3-6.1-4-21.6-4-21.6s3.8-4.9,3.7-4.1
		c0,0.5,4.7-6.7,4.4-19c0,0,1.2-0.7,2.3,0.7c1.2,1.3-0.5-6.3-3.8-13.2c-3.3-6.9-4.6-9.4-4.6-9.4l1.5-2.1c0,0-3-6.4-3-8.9
		c0-2.5,3.3-6.4,8.2-10.9c4.9-4.5,7.7-12.5,7.7-12.5s4.9-3.1,7.6-6.6c2.7-3.5,1.9-9,1.9-9s1.7-1.6,1.2-5.1c-0.5-3.5-0.8-6.1-0.8-6.1
		s0.5-1.4,0.7-2.6c0.2-1.2-0.3-2.1-2.4-4c-2.1-1.9-9.2-3.2-11.2-4.7c-2-1.5-2.3-7.1-6.8-13.7c-4.5-6.6-12.5-11.4-12.5-11.4
		s3.2-13.4,3-14.4c-0.2-1.1-1.9,0.3-6.6,2.6c-4.7,2.2-8,5.8-8.7,6.8c-0.7,1.1-0.2-10.7-0.4-12c-0.2-1.3-7.5,4-11.9,8.7
		c-4.4,4.6-6,13.9-6,13.9S282.3,99.8,274.1,115.3L274.1,115.3z M175.5,311c-2-0.3-7.7-0.7-7.7-0.7s2.6-3.2,4.9-5.3
		C172.7,305.7,175.4,310.4,175.5,311z"/>
</g>
<g id="Capa_7" class="st0">
	<path class="st1" d="M61.5,207.5c0,4.5,4.9,12.3,10.2,21.9c5.3,9.6,16.4,13.8,20.6,18.9c4.2,5.1,4.7,14.7,3.8,16.6
		c-0.8,1.9-22.5,16.4-29.5,22.9c-7,6.6-10.6,8.3-12.3,13.2c-1.7,4.9-8.1,14.7-8.5,21.2c-0.4,6.6,0,10.2,2.3,9.8
		c2.3-0.4,2.8-1.3,6.4-3.8c3.6-2.5,2.8-4,5.1-8.9c2.3-4.9,5.3-11.7,9.6-14c4.2-2.3,19.8-12.3,30.4-16.1c10.6-3.8,19.5-12.5,21-15.5
		c1.5-3,3.4-11.7,3.4-11.7s-1.1,27.4,0.2,34.4c1.3,7,5.5,21.2,3.8,25.3c-1.7,4-3.4,5.5-6.3,5.7c-2.9,0.2-4.4-0.8-6.4,1.4
		c-2,2.2-3.1,4-2.7,6.3c0.4,2.2,1.8,3,5.1,3.2c3.3,0.2,14.8,0.3,17.4-1.8c2.7-2.1,2.1-5.9,3.6-8.3c1.5-2.3,1-4.9,2.7-6.3
		c1.7-1.4,1.9-3.8,1.3-4.5c-0.6-0.6-3-13.7,0.4-27.5c3.4-13.8,6.8-22.3,7.4-25.1c0.6-2.8,1.9-3,1.9-3s11,2.5,25.1,1.3
		c14-1.3,21-2.1,34.2-0.8c13.2,1.3,20,2.3,20,2.3s16.4,13.4,24.2,22.9c7.9,9.6,10.6,13.4,8.9,18.1c-1.7,4.7-5.7,11.7-9.1,17.6
		c-3.4,5.9-7.4,4.1-10.2,4.4c-2.8,0.2-3.5,0.5-5.2,2.5c-1.7,2-3,2.5-2.8,4.9c0.2,2.3-0.1,3.7,4.4,4.4c4.5,0.6,14.5,1.7,18.9-0.2
		c4.4-1.9,19.6-23,23.9-30.1c4.2-7,3.6-13.4,3.4-16.8c-0.2-3.4,0.2-4.5,0.2-4.5s10.4,7.2,10.8,10.2c0.4,3-2.5,21.2-4.7,23.8
		c-2.1,2.5-5.1-0.2-9.1,3c-4,3.2-5.5,4.9-5.1,8.1c0.4,3.2,1.3,3.8,8.5,4c7.2,0.2,12.7,0.8,14.9-2.5c2.1-3.4,6.4-28.9,10.6-37.6
		c4.2-8.7,3-15.1-0.6-18.9c-3.6-3.8-17-14.2-17.8-17.8c-0.8-3.6,1.9-18.9,9.3-28c7.4-9.1,7.4-14.2,5.7-25.5
		c-1.7-11.3-3.2-18.3-3.2-18.3s-0.8-6.8,26.3-15.3c65.9-20.6,75.1-14.1,43.2-72c-9.6-17.4,6.9-23.8,5.6-29.7
		c-1.3-5.9-13.8,4-18.7,11.9c-4.9,7.9-3.2,16.4,2.3,27.4c5.5,11,11,24.2,9.6,30.6c-1.5,6.4-14.4,6.4-37.6,11.5
		c-23.2,5.1-49.9,21.2-51,21.7c-1.1,0.4-27.2-4-44.8-0.2c-17.6,3.8-85.2,8.7-103.4,5.7c-18.3-3-37.1-7.1-44.3-8.5
		c-7.2-1.4-13.6-2.8-20.3-8c-6.7-5.2-15.2-8.1-20.2-8.7c-5-0.6-6.7-0.2-7-1c-0.3-0.7-8.2-7.6-11.2-10.4c-3-2.8-2.8-3.5-4.2-3
		c-1.5,0.5-1.2,5.4-1.9,4.7c-0.7-0.7-4.4-4.4-6.1-3.6c-1.7,0.7-0.2,6.7,1.3,9.9c1.5,3.2,2.8,5.2,2.7,5.8
		c-0.1,0.6-13.4,10.9-15.7,16.4c-2.3,5.4-0.7,9.1-2.5,12.3c-1.8,3.2-4,7.2-3.8,8.8c0.2,1.6,1.7,1.5,2.7,3c1,1.5,0.6,2,2,3.2
		c1.4,1.2,3.1,1.6,4.6,2.1c1.5,0.5,0.2,2.4,3.6,1.6c3.4-0.8,6.7-3.8,12.5-3.5c5.8,0.3,17.4,2.3,23.3,3.9
		C60.5,206.3,61.5,207.5,61.5,207.5z"/>
</g>
<g id="Capa_8" class="st0">
	<path class="st1" d="M23,134.3c2.9,1.2,11,11.1,12.5,20.8c0,0,1.5,25.1,3.6,43c2.1,18,3.9,18.4,14.1,39.4
		c10.3,21,15.6,32.1,12.2,39.4c-3.4,7.3-27.9,38.1-30.9,39.2c-3,1.1-7.3,3.6-7.9,5.9c-0.6,2.2-0.3,1.3-0.2,2.8
		c0.1,1.5,1.5,0.5,2.1,0.9c0.6,0.3,0.5,0.7,2,2.5c1.5,1.7,9.4-0.9,13.3-1.3c3.9-0.4,7.3-6.6,15.8-16c8.6-9.4,25.2-28.2,26.5-33.8
		c0.6-2.8,1.7-10.9,3.6-18.7c2.2,2.7,3.7,5.5,4.1,8.6c1.7,12.4-9.4,38.5-11.9,40c-2.6,1.5-4.5,2.8-4.9,5.3c-0.4,2.6,2.1,2.6,4.9,3
		c2.8,0.4,4.7,1.1,7.7-0.4c3-1.5,5.3-1.7,8.6-4.7c3.2-3,9.6-22.2,11.9-31.8c2.3-9.9,3.8-29.1,0-36.7c9-0.9,34.1,8.3,75.7-1.5
		l1.4,7.1c3.3,17,28.3,21.9,28.3,21.9s3,4.1,0.4,10.2c-2.6,6.1-7.5,14.1-12,16.6c-4.5,2.5-6.8,4.9-7.9,6.4c-1.1,1.5-0.2,6,1.2,6.3
		c1.4,0.3,3.5,1.9,6.2,1.9c2.7,0,3.7-1.3,5.1-1.6c1.4-0.3,2.5,1.4,7.1-0.6c4.6-2,7.2-9.6,11.4-18.6c3-6.3,8.3-16.9,10-24.5
		c10.5,8.9,22.5,14.7,22.5,14.7s3,4.1,0.4,10.2c-2.6,6.1-7.5,14.1-12,16.6c-4.5,2.5-6.8,4.9-7.9,6.4c-1.1,1.5-0.2,6,1.2,6.3
		c1.4,0.3,3.5,1.9,6.2,1.9c2.7,0,3.7-1.3,5.1-1.6c1.4-0.3,2.5,1.4,7.1-0.6c4.6-2,7.2-9.6,11.4-18.6c4.3-9,13.3-26.7,9.8-32.1
		c-3.4-5.3-12.2-22.9-14.8-30.2c-2.6-7.3,6-39.6,6.2-47.7c0.2-8.1,0.1-9.1-2.1-15.2c20.1-2.2,33,11.6,42.4,28.9
		c12.1,22.4,19.7,60.6,64.6,53.1c11.9-2,19.7-12.4,17.1-14.1c-2.6-1.7-14.1,7.1-29.7,3.9c-15.6-3.2-22.7-10.5-29.7-24.8
		c-7.1-14.3-4.9-34.2-28-51.8c-23.1-17.5-36.8-12.4-49.3-13.6l0,0c-12.4-5.2-45.3-5.3-76.8-0.4c-35.7,5.6-65.7-3.9-80.2-3.9
		c-14.5,0-23.1-16-24.8-18.4c-1.7-2.4-2.6-12.8-3.2-14.8c-0.6-1.9-0.2-1.3,1.5-6.2c1.7-4.9,3.3-25.5,1.9-27.3
		c-1.4-1.8-5.6,1.5-10.7,5.8c-5.1,4.3-9.7,8.5-9.7,8.5s-1-1.5-1.8-5.1c-0.9-3.6-3.4-19.8-5-20.6c-1.6-0.9-3,4.7-4.9,10.3
		c-1.9,5.6-3.3,9.3-4.2,9.5c-1,0.2-10.8,2.1-12,2.8c-1.2,0.6-2.7,1.9-3.9,3.4c-1.2,1.5-0.4,2.2-2.9,4c-2.5,1.7-10.9,4.9-11.2,5.2
		c-0.4,0.3-0.7,1.4-0.9,2.7c-0.1,1.3-2.5,1.6-2.8,4.2c-0.3,2.6,1.3,3.7,1.9,4.4c0.6,0.7,0.1,1.9,2.1,6.2
		C12.2,131.2,20.1,133.1,23,134.3z"/>
</g>
</svg>
