<?xml version="1.0" encoding="utf-8"?>
<!-- Generator: Adobe Illustrator 21.1.0, SVG Export Plug-In . SVG Version: 6.00 Build 0)  -->
<svg version="1.0" xmlns="http://www.w3.org/2000/svg" xmlns:xlink="http://www.w3.org/1999/xlink" x="0px" y="0px"
	 viewBox="0 0 400 400" style="enable-background:new 0 0 400 400;" xml:space="preserve">
<style type="text/css">
	.st0{display:none;}
	.st1{display:inline;fill:#202020;}
	.st2{fill:#202020;}
</style>
<g id="Capa_1" class="st0">
	<path class="st1" d="M5.7,236.1c0,6.9,1.2,13.6,4.3,19.9c6,12,18,23.9,32.1,24.7c14.3,0.8,31-5.8,40.4-16.7
		c5.3-6.2,7.7-14.4,11.1-21.8c-0.4,2.7-0.4,5.4,0.5,8.3c2,7.2,6.6,13,11.1,18.8c3.3,4.2,7.7,9.2,9.2,14.4c1.5,5.2,0.9,4.5-0.3,9.7
		c-0.9,4-1.5,8.8-3.8,12.4c-2.4,3.7-6.1,5.4-8.9,8.6c-0.5,0.6-0.4,1.3,0.2,1.8c10.4,7.9,14.2,9.8,22.7,19.7
		c5.1,5.9,8.4,12.3,16.7,13.1c4.5,0.4,12.7,1.6,16.1-2.4c2.8-3.3-1-11.9-4.9-12.8c-2.1-0.5-4.2-0.5-6.4-0.7
		c-4.6-0.5-5.8-3.5-7.8-6.8c-1.6-2.7-5.2-5.1-5.3-8.5c-0.6-20,13.2-13.8,21.1-26c2.1-1.7,4.3-3.4,6.4-5c15.7-13-3.3-38.2,20-20.8
		c1.7,0.7,3.5,1.3,5.2,1.9c5.2,1.8,10.5,3,16.1,3.3c5.5,0.2,11.2-0.2,16.7-1.3c2.4-1.1,4.8-1.8,7.1-2.2c2.8-0.2,5.4,0,7.7,0.6
		c2.3,0.6,4.5,1.6,6.4,2.8c10.2,12.8,22.8,22.9,19.9,40.3c-0.4,2.8-0.9,5.5-1.7,8c1,1.7,3.6,2.3,4.9,3.7c2.4,2.7,4.3,5.8,6.1,8.9
		c2,3.4,3.8,6.8,5.7,10.3c1,1.8,2,4.5,3.7,5.9c3,2.4,5.9,1.4,9.6,1.5c3.4,0.1,10.3,1.5,13.1-1.4c1.9-2,2.7-5.1,1.2-7.7
		c-2.4-4-6.8-4.4-11-5.3c-6.8-1.5-9.2-8.3-9.4-14.6c-0.1-3.3,0.4-6.6,0.9-9.9c4.9-16.8-0.1-36.9,11.4-53c1.6-2.3,3.3-4.4,5-6.5
		c3.6-4,7.4-7.8,11.6-11.2c5-4.1,9.7-8,12.5-14c2.7-5.9,4-12.8,4-19.4c0.1-3.7,0.3-7.5,0.6-11.2c6.6-4.2,11.7-10.4,13.6-18.5
		c1.7-6.9,1-13.5,0.6-20.5c-0.3-5-0.6-10.4,0.8-15.2c0.3-1,0.7-2,1-3c1-0.2,2-0.4,3.1-0.3c2.8,0.2,5.6,0.8,8.4,1.2
		c5.7,0.8,11.7,1.9,17.4,1.4c3.5-0.3,6.1-2.4,7.9-5.2c3.1-4.8,7.2-8.5,11.3-12.3c2.5-2.3,4-4.5,2.6-7.9c-1.2-2.9-6.2-4.2-8.6-5.3
		c-8.4-3.8-16.6-6.7-23.8-11.9c-0.9-5.7-3.3-10.4-9.1-13.4c-4.6-2.4-9.2-4.6-14-6.6c-2.9-1.2-5.9-1.9-8.9-2.9
		c-0.6-9-2.6-19.2-9.3-24.7c-0.3-0.3-0.7-0.3-1-0.2c-0.6-0.2-1.5,0.1-1.5,1c-0.3,9.3-4.3,17.2-7.7,25.6c-1.4,3.4-2.8,7-3.1,10.6
		c-0.9,0.4-1.8,0.8-2.6,1.2c-3.4,1.7-6.9,3.4-10.2,5.3c-6.6,3.9-12.1,9.5-16.3,16c-5.2,8.2-7.9,17.4-10.7,26.7
		c-2.5,1.4-5,2.7-7.4,4.2c-9,5.4-17.6,10.7-27.7,13.8c-10.4,3.2-32,11.6-43,12.7c-20.2,1.9-40.5,2-59.6,9.8
		c-8.2,3.3-15.1,8.6-20.3,15.3c-5.2,0.6-10.7,3.2-13.4,5.3c-10.3,8.1-14.4,19.4-20.1,30.7c-6.5,13-17.2,22-32.5,20.7
		c-7.9-0.7-14.9-3.6-20.6-9.1c-2.9-2.7-6.2-5.9-7.9-9.5c-1.6-3.4-2.5-7.1-4-10.6c-0.4-0.9-1.4-1.1-2-0.3
		C5.8,224,5.8,230.6,5.7,236.1z"/>
</g>
<g id="Capa_2" class="st0">
	<path class="st1" d="M395.7,356.8c-3.4-3.7-8.2-6.2-10.7-10.6c-2.4-4.2-3.9-8.9-5.7-13.4c-1.5-3.9-2.9-7.9-4.7-11.7
		c-1.7-3.4-3.8-6.6-4.8-10.3c6.7-1.6,4.6-5.8-0.3-10.1c-8.7-7.7-16-18.5-18.1-30.2c1.3,1,2.7,1.8,4.5,2.3c0.9,0.2,1.4-0.4,1.4-1.1
		c0.1-0.3,0.1-0.6-0.1-0.9c-3.2-4.9-5-10.4-5.6-16.2c-0.9-9.3,1.4-17.1,3.4-26.1c1.6-7,1.9-14.2,1.5-21.3c-0.1-1.5-0.3-3-0.4-4.5
		c1.7-4,2.6-8.3,2.8-13c0.3,0.3,0.6,0.7,0.9,1c0.7,0.8,1.9,0.1,2-0.8c0.3-3.1-0.4-6.2-0.4-9.3c1.1,2.4,2.5,4.8,4.7,4.2
		c2.3-0.6,3.2-3.7,3.7-6.4c1,2.4,1.7,4.8,3.3,6.9c0.5,0.6,1.5,0.3,1.8-0.2c2.1-3.5,3.2-7.5,4.5-11.3c0.7,1.9,1.4,3.8,2.7,5.5
		c0.7,0.9,2.1,0.6,2.2-0.6c0.3-6.4,2-12.5,3.9-18.6c0.2,0.6,0.4,1.2,0.7,1.9c0.4,0.9,1.9,0.6,2.1-0.3c2-7.8,2.3-15.3,1.5-23.2
		c0.3,0.4,0.6,0.7,1,1.1c0.8,0.9,2.1-0.1,1.9-1.1c-0.7-3.4-1.8-6.6-4-9.4c-1.2-1.5-2.6-3-4-4.3c-1.4-1.3-5.6-3.3-1.7-4.4
		c1-0.3,1-1.5,0.3-2.1c-2-1.5-3.7-1.9-6.3-1.7c-1.4,0.1-4.8,1.5-5.1,0.9c-0.8-1.6-2.9-1.6-4.4-1.1c-4.5,1.3-12.4,5.4-11,11.2
		c0.2,0.8,1.4,1.2,1.9,0.5c9.2-10.8,20.6,4,20.2,13.8c-0.4,10.9-8.9,19.1-20,18.6c-10.3-0.5-19.4-5.2-27.9-10.7
		c-0.2-0.1-0.3-0.2-0.5-0.3c-4.6-6.5-9.9-12.6-16.3-17.3c-10.7-7.8-24.7-11.1-37.8-11.6c-8.1-0.3-15.6,1.2-23.5,2.8
		c-8.6,1.7-17.7,3-26.4,3.9c-18.7,1.8-35.6,0.8-52.2-8.6c-14.2-8.1-25.5-19.1-34.7-32.4c-4.4-6.3-8.6-12.8-13-19.1
		c0.2-1.6,0.2-3.2,0-4.8c-0.6-4.9-2.7-8.2-5.9-11.8c-3.6-4.1-6.5-8.9-10.7-12.5c-8.5-7.2-19.8-9.9-30.7-10.9
		c-7.7-0.7-20.5-1.7-26.9,4.5c-3.7,1.6-5.5,5.6-7.9,9.1C41.8,47,36,49.5,28.3,52C21,54.3,6.9,57.8,6.1,67.4c-0.5,5,1.5,6.4,5.8,8.1
		c6.8,2.7,9.8,10.6,17,12.5c9.3,2.4,18.1-1.2,27.1-4.3c0.1,6.2-1.4,11.4-3.3,17.3c-2,6.1-1.8,11-1.1,17.3c0.8,7.4-1.5,12.8-6.3,18.4
		c-0.6,0.7-0.4,1.7,0.5,1.9c3.1,1,6,0.1,6.2,4.3c0.2,3.4,0.2,6.9,1.1,10.2c2.3,8.7,3,16.9,1.4,25.8c-0.1,0.8,0.5,1.7,1.4,1.4
		c2.2-0.8,3.4-2.5,5.2-3.8c1.1,4.4,0.7,8.9-0.6,13.2c-0.4,1.2,1.1,1.8,1.9,1.1c3-2.5,4.9-5.8,7.2-8.9c0.3,3.1-0.2,6.1,0,9.2
		c0.1,1,1.2,1.5,2,0.8c2.1-1.8,3.5-4,4.8-6.3c0.3,4.6,1.1,9.4,3.5,13.1c0.5,0.7,1.5,0.8,2,0c1.2-2,1.9-4.1,2.6-6.3
		c2.1,6.5,4.5,12.8,6,19.4c0.1,0.3,0.2,0.5,0.4,0.6c1.6,9,2.4,18.2,2.7,27.5c-1.5,6.3-1.9,12.5-1.8,19c0,4.7,0.2,9.5,2.9,13.5
		c0.5,0.7,1.5,0.8,2,0c0.8-1.4,1.4-2.9,2.4-4.2c0.6,10.4,4.4,21.3,2.3,31.5c-2.2,10.3-8.9,18.4-14.7,26.9
		c-2.3,3.4-14.9,22.7-4.3,23.6c-0.8,1.7-1.7,3.4-2.5,5c-0.2,0.5-0.2,1.3,0.4,1.6c2.3,1,5,2,7.6,1.1c1.2-0.4,2.5,4,3.5,5.3
		c1.4,1.8,3,1.2,4.3,0.1c2.9,5.7,6.8,2.3,12.1,1c-0.1,0.3-0.2,0.7-0.4,1c-0.2,0.6,0.3,1.2,0.8,1.4c8.9,3.2,18.1,3.7,27.4,2.6
		c-0.1,0.8-0.2,1.7-0.3,2.5c-0.1,0.7,0.3,1.5,1.1,1.5c4.3,0.1,8-1.2,12.1-2c3-0.6,6.1,0.1,8.9-0.4c1.7-0.3,2.7-1.7,3.7-3
		c3.3-4.3,5.8-0.3,8.6,1.3c3,1.8,4.1-0.7,5-3.4c0.7-1.9,1.2-3.8,1.7-5.7c1.1-4.1,3.6-2.7,6.8-2.2c0.7,0.1,1.5-0.3,1.5-1.1
		c-0.1-7.1-2.6-13.9-3.1-21c-0.4-7.2,0-14.2,1.2-21.2c1.3,1.7,2.6,3.4,4.3,5c0.7,0.6,2.1,0.3,2-0.8c-0.9-7.1-3.5-14.7,0.1-21.5
		c2-3.7,4.7-7,7.1-10.5c0.5,1.7,0.9,3.3,1.8,4.9c0.3,0.6,1.3,0.8,1.8,0.2c1.8-2.2,2.8-4.5,3.1-7c1.2,2.2,2.3,4.4,3.8,6.5
		c0.3,0.5,1,0.8,1.6,0.4c2.5-1.9,3.8-4.4,5-7c0.8,2.9,0.7,6,1.6,8.9c0.2,0.8,1,1,1.7,0.7c2.5-1.1,4.4-3.6,5.6-6.3
		c0.2,0.4,0.5,0.9,0.8,1.3c0.4,0.6,1.3,0.8,1.8,0.2c2.8-3,3.1-6.7,4-10.4c0.5,4.7,0.1,9.5,2.4,13.8c0.4,0.7,1.3,0.7,1.8,0.2
		c1.7-1.3,2.7-3,3.7-4.8c1.3,1.1,2.3,2.3,3.3,3.9c0.4,0.7,1.6,0.8,2,0c2.3-4.3,3.7-9.3,4.2-14.2c1.9,4.7,2.2,9.9,5.2,14.2
		c0.4,0.6,1.3,0.8,1.8,0.2c1.3-1.5,2.2-3.1,3-4.8c0.3,1.5,0.9,2.9,2.1,4.1c0.6,0.6,1.8,0.3,1.9-0.5c0.8-3.8,1.2-7.6,2.8-11
		c3.7,6.8,4.4,14.9,7.8,21.9c1.6,3.3,3.8,5.4,6.9,4.4c0.4,8.6,1.2,16.2,7.5,22.8c0.4,0.4,1,0.4,1.4,0.2c1.7-1,6.5-5.6,8.3-1.6
		c0.9,2.1,1.5,4.3,2.3,6.5c1.3,3.1,2.7,5.5,5.6,7.2c0.8,0.4,1.7-0.1,1.7-1c0.1-2.2,0.4-4.2,1.2-6.1c3.4,9.1,4.2,18.4,10.7,26.2
		c4,4.7,8.1,8.1,11.9,1.8c2.3-3.9,8.1-1.6,11.5-2c2.1-0.2,3.9-0.6,5.8-1.4c1.6-0.7,3.2-1.7,4.5-2.7c1-0.8,2.3,1.6,3.1,2.4
		c2.1,2.1,4.1,4.1,7.2,3.1c1.4-0.4,1.7-2,1.8-3.4c8.9,7.2,26.1,9.6,33.5-0.6C396.1,357.8,396,357.1,395.7,356.8z"/>
</g>
<g id="Capa_3" class="st0">
	<path class="st1" d="M9.9,323.8c1.1,13.9-2.5,29.3,13.2,35.8c7.1,2.9,30.6,5.7,29.4-7.8c-0.7-7.4-13.2-7.7-10.8-15.9
		c1.9-6.5,6.8-7.5,12.3-9.7c3-1.2,5.1-3.7,7.7-5.6c0.1,0.9,0.2,1.8,0.1,2.7c-0.1,1.4,2,1.6,2.3,0.3c2.2-7.9,12.3-11.8,18.3-16.4
		c5.7-4.3,9.5-10.5,14.8-15.3c0.4,1.6,0.6,3.2,0.6,4.9c0,1,1.3,1.6,2,0.8c6.1-5.9,12.3-12.1,15.2-20.3c2.5-7,2.6-15.7,7.4-21.6
		c0.1,0.5,0.2,0.9,0.3,1.4c0.2,1,1.7,1.1,2.2,0.3c1.9-3.3,4.1-7.1,5-10.9c0.6-2.5,0.7-5,0.5-7.5c9.7-3.2,20.4-3.9,30.4-3.3
		c17.9,1,35.2,6.4,50.9,15c5.6,3.1,12,6.5,15,12.5c2.5,5.2,2.4,10.2,3,15.7c0.5,5.4,2.5,9.2,6.7,7.5c-3.8,12.4-10.7,25.5-6.7,38.6
		c0.2,0.8,1,1,1.7,0.7c0.3-0.1,0.7-0.2,1-0.4c0.3,1.8,0.6,3.7,1,5.5c0.2,0.8,1.1,1.1,1.7,0.7c1.1-0.5,2-1.2,3-1.8
		c2.5,5.5,1,11.9,2.5,17.6c1,3.7,3,9.7,7,11.1c5.9,2,14,0.6,20.1,0.3c3.9-0.2,8.9,0.3,11.8-2.8c4.7-4.9,1.1-21-6.9-20.9
		c-1.5,0-2.2,0-3.7,0.4c-2.5,0.6-3.8,1.3-3.9-1.8c0-4.1,0-8.2,0.3-12.3c0.6-7.5,1.8-14.7,4.1-21.8c0.9,0.9,1.8,1.8,2.5,2.8
		c0.3,0.5,0.8,0.6,1.2,0.5c0.8,0.1,1.6-0.5,1.4-1.4c-2.6-9-2-18.5-1.3-27.7c0.5-6.9,0.5-15.1,3.9-21.4c1.2,2.2,2.5,4.2,4.6,5.8
		c0.8,0.6,1.7-0.2,1.8-1c0.4-4.4-0.5-9.3,1.3-13.4c1.3,2.1,2.4,4.2,4.3,5.9c0.8,0.8,1.9,0.2,2-0.8c0.9-9.8,1-23.2,9.1-30.3
		c0.8,3,2.3,5.6,5,7.2c0.8,0.5,1.8-0.1,1.8-1c0.2-11.1,8.8-19.7,8.7-31c0-0.7-0.5-1.1-1.1-1.1c-15.8-10.3-11-32.3-4.1-46.7
		c2.3-4.8,9.8-25.5,17-18.7c1.5,1.4,3.4,3.6,5.3,2.9c1.7,2.6,2.8,6,5.7,7.2c1.9,0.8,3.5-2,4.7-4.1c1.1,2.6,2.7,4.6,5.4,6.2
		c0.6,0.4,1.3,0.1,1.6-0.4c0.4-0.6,0.8-1.3,1.1-1.9c0,7.4,1.1,15.5,6.8,20.3c0.6,0.5,1.4,0.4,1.9-0.2c0.9-1.3,1.6-2.6,2.4-3.9
		c0.5,1.8,0.9,3.5,1.5,5.2c0.2,0.7,1.1,1.2,1.7,0.7c2.1-1.4,3.1-3.3,4.4-5.3c0.6,3.7,0.7,7.3,2.7,10.7c0.5,0.8,1.6,0.7,2,0
		c4.6-6.9,5.7-15.2,9.3-22.5c0.3,0.7,0.6,1.5,0.7,2.3c0.2,0.9,1.7,1.2,2.2,0.3c1.5-3.4,2.5-6.8,3.1-10.5c0.5-3.2,0-6.3,3.6-7.3
		c0.8-0.2,1-1.1,0.7-1.7c-3.1-6.3-3.8-12.3-4.5-19.2c-0.1-0.7-0.2-1.4-0.3-2c3.2-2.8,4.1-6.4-0.6-10.4c-2.7-2.3-5.7-3.6-9-4.4
		c-3.2-0.7-11-1.7-11.9-5.6c0.7,0.3,1.6-0.3,1.6-1.1c-0.1-1.9-0.2-2.8-0.4-4.4c1.2,0.5,2.4,1,3.5,1.4c0.7,0.3,1.5-0.4,1.5-1.1
		c-0.3-5.6-3-9.8-8.1-12.3c-5.6-2.7-11.1-0.3-16.8,0.7c-4.1,0.7-6.7-0.1-9.3-3.3c-0.6-0.8-1.3-1.7-2.1-2.2c-2.6-1.7-5.4-2.3-8.5-2.3
		c-5.7-0.1-14.3-0.1-15.4-7.6c-0.5-3.5,0.1-7.1,0.3-10.6c0-0.8-0.5-1.1-1.1-1.1c-0.4-0.5-1.1-0.7-1.7-0.1
		c-5.1,5.5-9.4,11.6-12.3,18.6c-2.9,7.1-6.3,14.3-8.7,21.7c-1.6,2.6-3,5.3-4.4,7.6c-3.3,5.7-6.5,11.8-11.8,16
		c-5.8,4.7-11.8,9.1-17.6,13.7c-6.4,5-12.6,10.2-18.9,15.2c-6.7,5.3-12.1,8.7-20.7,9.8c-15.4,2.1-30.7,4.4-46.4,4.3
		c-8.3,0-16.6-0.4-24.8-1.5c-7.1-0.9-14.2-2.6-21.3-2.9c-11.5-0.6-23.6,2.1-32.7,9.5c-1.6,1.3-3.1,2.7-4.4,4.2
		c-2.9-3-5-6.8-5.8-11.1c-1.1-6,1.6-11.7,0.3-17.5c-2.7-11.6-14.5,4.5-16.5,8.1c-6.2,10.5-7.3,23.2-3.1,34.8
		c2.2,6,6.3,9.9,11.3,12.9c-1.4,1.6-2.8,3-4.4,4.4c-3.3,3-7.3,6.1-8.5,10.6c-1.7,6.1-1.1,12.2-1.1,18.5c0,9.3-1.1,17.7-4.9,26.3
		c-2.9,6.5-5.6,13.2-8.6,19.6c-2.8,6-6.3,13.1-11.5,17.4c-4.2,3.5-9.5,5.5-13.4,9.4c-0.4,0.4-0.5,1.3,0,1.7c0.9,0.8,1.6,1.3,2.4,1.9
		c-5.4,2.3-13.4,4-16.4,9.1C3,309.3,9.3,315.9,9.9,323.8z"/>
</g>
<g id="Capa_4">
	<path class="st2" d="M6.7,361.6c-0.2,0.3-0.2,0.7,0.1,1c5,5.7,12.1,7.8,15.6,15.1c2,4.2,0.8,8.9,6.2,9.8c3.2,0.5,6.4,0.5,9.6,1.1
		c2.4,0.5,5.3,1.1,7.7,0.4c2.8-0.9,4.3-2.7,5-5.1c0,0,0-0.1,0.1-0.1c0.1-0.2,0.2-0.5,0.2-0.7c0-0.1,0-0.3,0-0.4
		c0.1-0.6,0.2-1.2,0.3-1.8c0-0.2,0-0.3-0.1-0.4c0.5-4.8,0.3-10.2-3.2-13.6c-5-4.9-13.9-5.4-15.2-13.5c-1.5-9.5,1.9-21.5,6.8-29.7
		c4.3-7.2,10.6-12.9,17.6-17.4c6.9-4.5,14.6-7.9,20.8-13.3c6.4-5.5,8.6-12.4,12.7-19.5c4.8-8.2,12.9-13.6,21.2-17.9
		c0.3-0.2,0.6-0.3,0.9-0.5c7.1-0.4,14.2,0.3,21.2,1.3c9.6,1.4,18.7,3.9,27.6,7.6c6.3,2.6,12.7,5.1,19.5,6c-0.6,0.3-1.3,0.6-1.9,1
		c-0.5,0.3-0.5,1.1,0,1.4c8.5,4.8,19.3,5.7,28.9,5.4c5.4-0.1,10.5-1.3,15.1-3.5c5.4,6.2,10,12.6,13,20.3c1.7,4.3,3.3,8.9,3.5,13.5
		c0.2,4.3-1.2,7.2-2.1,11.3c-1.4,6.3,4.4,8,7.6,12.7c2.3,3.4,4.8,6.9,6.1,10.8c1.3,3.9,2,7.9,2.7,11.9c1.4,7.3,2.4,15.8,6.1,22.4
		c2.9,5.1,7.6,9.1,13.4,10.5c7.2,1.8,17.4,0.5,24.9,0.4c0.1,0,0.1,0,0.2,0c0.3,0,0.5-0.1,0.7-0.4c2.2-3.4,2-9.9,1.2-13.6
		c-0.7-3.2-2.6-4.9-5.9-5.3c-4-0.5-8.3,0.8-10.9-3.4c-1.8-3-2.8-6.3-3.5-9.7c-1.5-7.7-2.6-15.5-2.7-23.4c-0.1-8.6,0.7-17.1,2.7-25.5
		c1.9-7.8,4.2-15.5,5.5-23.5c1.3-7.5,2.8-14.8,5.1-22c0.3-1,0.6-2,0.9-3c4.5-4.3,9.2-8.4,13-13.4c8.9-11.7,13.1-24.8,11.4-39.5
		c-1.2-9.6-1.5-18.7-0.8-28.3c0.6-8.2,1.4-16.4,2.4-24.6c1-8.2,2.6-16.2,6.8-23.5c0.8-1.3,1.6-2.7,2.5-4.1c1.2-0.4,2.5-0.8,3.7-1
		c8.6-1.4,16.6-0.1,25.2,0.6c11.9,1,24.9,1,33-9.1c4.7-5.9,4.2-13.7,5.4-20.7c0.7-4,2.7-10.7-1.6-13.3c-2.3-1.4-6.6-1-9.1-1.4
		c-3.9-0.7-7.8-1.4-11.5-2.9c-4-1.6-7.7-4-10.9-6.9c-0.4-2-0.9-3.9-1.7-5.8c-2.4-5.7-6.6-9.5-12.2-12.2c-6.4-3.1-12.8-5.1-19.7-6.5
		c-2.4-0.5-6-1.5-9.1-3.3c0.6-1.7,1.3-3.3,1.8-5c3-8.9-0.9-17.5-0.7-26.6c0-0.3-0.2-0.6-0.4-0.7c-0.2-0.3-0.6-0.5-1.1-0.2
		c-4.5,3.1-8.3,7-12.3,10.7c-3.7,3.4-8,6.7-10.6,11.1c-2.7,4.6-3.3,9.7-5.1,14.6c-0.4,1.1-0.8,2.3-1.2,3.5c-0.2,0.1-0.3,0.1-0.5,0.2
		c-5.4,1.5-10.5,3.9-15.2,6.9c-9.2,5.9-16.9,13.4-23.8,21.9c-6.9,8.5-13.1,17.5-19.1,26.6c-6.8,10.2-15.6,19.4-24.3,28
		c-16.3,16.2-40.2,22.2-62.5,23.6c-12.6,0.8-25.5,0.5-38.1,0.2c-6.3-0.1-12.7-0.2-19-0.5c-5.5-0.3-10.7-1.5-16.1-2.1
		c-2-1.8-3.8-3.8-5-6.6c-2.5-5.5-4.2-11.7-4.8-17.7c-1.1-10.3,0.3-23.3,10.8-28.5c9.5-4.7,22.1-0.3,28.9,7.2
		c3.8,4.2,6.8,10.1,5.2,15.9c-1.6,6.1-6.2,10-11.4,13.2c-0.8,0.5-0.3,1.6,0.5,1.6c0.1,0.2,0.2,0.3,0.4,0.4c5.6,3,12.2,3.8,18.5,4
		c6.5,0.2,13.1,0.1,19.3-2c11.5-4,21.7-13.5,24.6-25.6c5.4-22.7-10.6-47.6-30.3-58.1c-19.6-10.5-45.7-14.1-67-7
		c-9.5,3.1-18.9,7.8-24.9,16.1C29.8,75.1,25.4,84,23,92.9c-4.5,16.3-4.1,35.4,4.9,50.2c5,8.1,11.9,13.8,20.1,18.5
		c4.5,2.6,9.2,4.9,13.9,7.2c-4.6,8.4-13.8,13.5-19.4,21.3c-3,4.2-6.4,8.2-9.1,12.5c-1.7,2.1-3.3,4.3-4.3,6.9c-2.8,7-4,14.8-5.2,22.2
		c-2.5,15.9,1,31.5,0.4,47.4c-0.3,8.4-1.7,16.9-5.5,24.4c-2.1,4.1-8,10.7-6.8,15.7c0.8,3.3,2.8,6,2.9,9.5c0.1,4.1-0.2,8.2-1.2,12.2
		c-1.6,6.5-3.7,14.2-7.1,20C6.4,361,6.5,361.3,6.7,361.6z"/>
</g>
<g id="Capa_5" class="st0">
	<path class="st1" d="M36.5,160.2c-1,2.2-1.3,4.6-1.1,6.9c0.4,2.8,2.2,4.6,4.4,6c-5.1,8.1-6,19.1-0.6,27.2c3.3,5,8.8,7.7,14.7,9
		c-1.1,2.3-1.8,4.8-2,6.9c-0.8,6.2,1.4,11,5.1,15.2c-3,5.8-0.7,12.6,4.7,17c-2.2,9.6,5.3,19.9,12.5,26.1c7.2,6.2,15.3,8.6,23.9,9.6
		c1.2,3.6,2.3,7.2,3.4,10.8c1.9,6.7,5.3,13.8,6,20.9c-0.2,0.1-0.4,0.3-0.6,0.4c-2.8,2.4-3.5,6-2.4,9c-0.8,1.3-1.3,2.8-1.5,4.3
		c-3,1.5-5.8,3.8-6.9,5.6c-3.6,5.9-2.7,12.6,1.3,17.3c-2.9,3.3-4.3,8-3.5,12.4c1.2,6.3,5.4,9.8,10.7,11.3c-7,6.7-10.4,21.3,1.8,20.8
		c11.5-0.4,31.5,3.5,31.9-13.3c0.2-0.1,0.4-0.2,0.6-0.4c6.3,3.1,14,2.3,16.3-5.5c1.3-4.5,0.4-9-2-12.6c0.9-1.6,1.5-3.3,1.6-5.2
		c0.1-1.2,0-2.3-0.1-3.5c4.4-3.2,7.9-8.8,6-14.1c-1.9-5.3-7.4-6.8-12.6-6.1c0-0.1,0-0.2-0.1-0.3c-1.4-3.4-4.4-5.5-7.8-6.5
		c-1-0.3-2.1-0.5-3.1-0.6c0-1.8,0.1-3.6,0.4-5.5c0.2-1.9,0.6-3.7,1-5.7c1.8-4.8,0.8-13.1,3.4-18c0.9-1.6,2.1-2.9,4-3.5
		c2.1,1.7,4.3,3.3,6.7,4.8c11.2,4.4,23.6,5.2,34.3,4.6c2.1-0.1,4.2-0.3,6.3-0.4c23.2-4,43.4-19.1,63.6-19.1c5,0,0,12.6,4.3,19.1
		c1.3,1.7,2.8,3.3,4.2,5c4.3,4.9,8.7,9.9,13.2,14.7c3.5,3.7,8.1,7.3,11.6,11.5c-0.4,0.7-0.7,1.4-0.9,2.1
		c-5.4-0.6-10.5,4.6-10.9,10.4c-0.3,4.8,2.3,8.1,6,10.2c-0.7,5.6,2.6,12,8,14.4c0.1,0.1,0.3,0.1,0.5,0.2c-3.3,2.2-6,5.3-7.6,8.9
		c-1.9,4.3-0.2,8.5,4.6,9.2c7,1,15.2,1.5,22.1-0.7c7-2.2,5.7-9.6,7.1-15.3c0.1-0.3,0-0.5,0-0.7c1.8-1.8,3-4.1,3.1-6.6
		c6.5,0.5,10.8-6.8,10.4-13.6c2.7-2.4,3.9-6.3,3.2-10.2c-0.9-4.9-3.7-7.5-7.4-8.8c-1.5-7.8-11.2-17-18.3-12.3
		c-1.5-7.2-1.3-15.1-0.2-21.7c1.9-11.1,5.8-21.8,8-32.8c3.8-18.8,10.8-38.6,0.1-56.7c-0.6-1-1.3-2.1-2-3.2c4.2-2.7,7.5-7,9.6-11.7
		c2.6,0.6,5.8-0.5,8.6-2.4c6.6,10.6,20.7-0.3,16.5-10.9c8.9-2.3,15.9-10.7,10.6-19.3c13.4-7.7,1.6-18.2-9.4-21.1
		c2.8-7.8-5.1-11.9-12.4-13c-1.5-0.2-4.3,0.1-4.3-0.7c-15.3-15.5-32.9,4.7-32.2,17.3c-1.2,1.4-2.8,2.7-3.6,4.5
		c-1.4,3.2-3.5,11.9,0.5,13.6c-1,1.3-1.8,2.8-1.9,4.4c-0.4,3.3,1.4,7.1,4.5,8.6c1.3,0.6,3.4,1.3,5.6,1.5c-1.2,2.4-1.6,5.1-0.2,7.6
		c1.7,2.9,4.5,4.4,7.7,4.6c-1.6,3.3-3.9,6.3-6.8,8.3c-2.6-2.4-5.5-4.4-8.7-5.5c-8.4-2.8-15.6-0.3-23.9,1.3
		c-16.3,3.2-29.1-2.2-40.4-11.7c0.1-3.5-0.2-7-1-10.4c-1.2-5.3-3.5-11.9-7.4-16.4c1.9-5.3,2.2-11.2,0-16.7c-2-5-7.5-9.8-13.4-11.7
		c0.5-2.8,0.3-5.8-0.8-8.8c-1.1-2.9-3.8-6.2-7-8.1c6.4-9.4,9.4-20.8,7.8-33.1c-1.1-9.1-4.8-25.1-13.6-31.3c0.1-3.4-0.4-6.7-1.7-9.8
		c-3.4-8.1-10-13.4-18.1-13.9c-1.2-4.4-6.1-6.8-11.1-7.1c-0.6-1.6-1.3-3.1-2.3-4.4c-5-6.7-12.5-7.5-20.4-6.7
		c-11.3,1.1-29,9.9-27.9,22.3c-4.1,1-8.6,3-9.8,7.3c-0.7,2.4-0.4,4.9,0.2,7.2c-1.9-0.1-3.8,0.2-5.6,1.1c-8.7,4.1-7.8,16.9-16.1,20.6
		c-9.2,4-18.4-0.3-26-5.6c-2.2-1.5-5.2-4.4-8.2-4c-5.8,0.8-6,7-4.7,12.5c-4.8,9-10.7,20.2,1.1,26.8c6.5,3.6,8.7,8.5,15.8,10.2
		c-0.1,0.1,4.9-4.3,4.8-4.2c-3.7,3.2-7.6,6.6-10.9,10.3c-3,3.3-7.3,8.6-8,13.7C37.8,130.6,27.1,148.9,36.5,160.2z"/>
</g>
<g id="Capa_6" class="st0">
	<path class="st1" d="M393.6,155.6c-1.2-1.2-2.3-2.4-3.3-3.8c-6.5-7.2-12.4-10.1-10.8-17.6c0.1-2.6,0.5-5,1.2-7.2
		c0.2-2,0.2-3.8,0.1-5.5c-0.1-5.1-0.3-9.9-3.6-13.6c-1.7-1.5-3.6-2.7-5.4-4.1c-9.1-6.6-15.5-14.8-18.1-27.8c0.1-2.8,0.1-5.4,0.1-8
		c0.1-7.8-1-16.5,1.1-24c0.1-0.4,0-0.7-0.1-1c0.3-0.6,0.3-1.4-0.6-1.8c-6.7-2.9-11.9,8-14.5,12.4c-3.6,5.9-9.1,9.7-13.7,14.8
		c-0.9,1-1.6,2.1-2.1,3.3c-0.3-2.7-0.4-5.5-0.5-8.3c-0.2-7.1-1.2-15.1,2.3-21.6c0.2-0.4,0.2-0.9,0.1-1.2c0.1-1.1-1-2.3-2.1-1.4
		c-3.4,2.6-5.9,5.9-8.4,9.4c-3.3,4.6-8.8,8-11.7,12.9c-4.7,8.1-0.8,16.3,1.1,24.6c-0.8,0.6-1.6,1.3-2.4,1.9
		c-10,8.6-12.7,23.6-18.5,34.8c-7.2,13.8-16.4,24.9-30.8,31.4c-2.5,1.1-5.1,2.3-7.7,3.3c-7.8,1.4-15.8,1.4-23.7,1.1
		c-10.9-0.4-19.5-4.4-29.5-8.3c-11-4.3-21.9-7.3-32.1-13.5c-28-16.8-71.5-25.3-99.4-3.6c-0.3,0.2-0.6,0.5-0.9,0.7
		c-0.2-0.1-0.3-0.1-0.5-0.2c-6.4-2.9-11.9-7.5-16.8-12.3c-9-8.9-15.3-20.4-19.2-32.3c-7-21.7-3.5-45.3,7.5-64.9
		c0.4-0.1,0.7-0.3,1-0.6c1.5-2.2,5.1-7.6,0.3-8.2c-5.9-0.8-12,12.2-13.9,16c-9.1,19.1-10.3,43.3-8.1,64
		c1.9,18.5,10.1,36.2,25.9,46.7c3.4,2.3,7.3,4.1,11.4,5.4c-12.7,18.5-15.5,43-6.5,64c3.5,8.3,7.6,16.5,8.5,25.6
		c1.1,11.3-8.1,20.8-16.5,27c-6.7,4.9-14.4,7.7-21.7,11.3c-5.3,2.6-6.7,7.2-6,12.8c2,16.3,4.4,32.5,5.9,48.9c0.5,6-0.3,13,1.5,18.6
		c0,0.1,0,0.3,0,0.4c1.3,14.4,22.6,18.3,34,14.6c4.7-1.6,9.7-8,6.9-13c-4.9-8.8-15.7-6.9-17.4-17.3c-1.3-7.9,0.1-16.3-1.6-24.2
		c-1.8-8.2-6.6-13.4,3.8-15.9c13.7-3.4,26-6.7,38.7-13.3c15.8-8.3,28-21.2,32.9-37.5c8.6,2,16.6,6,24.2,11.6
		c12,8.8,22.4,16,37.1,19.4c15.8,3.7,32.5,3.2,48.6,1.9c9.9-0.8,19.8-1.7,29.5-3.7c8.8,7.8,9.6,4.4,17,13.5
		c5.9,7.2,10.7,15,15.9,22.6c5.7,8.3,11,16,14.7,25.4c2.3,5.8,6.2,9.7,10.6,13.9c5.9,5.7,7.3,13.8,12.5,19.9
		c7.3,8.6,24.2,10.1,34.6,11.1c0.7,0.1,1.2-0.5,1.4-1.1c3.3-9.2-10.5-17-16.5-21.5c-14.2-10.5-18.3-29.9-23.8-45.9
		c-3-8.6-6.4-16.9-10.8-24.9c-5.2-9.5-3.8-5.8-6.7-16.6c-1.2-4.3-1.6-8.8-1.8-13.5c1.9-2.3,3.6-4.7,5.1-6.7
		c6.5-8.8,10.7-19.5,14.1-29.8c4.5-13.6,7.3-27.5,13-40.7c1.2-2.9,2.8-5.7,4.5-8.5c8,2.1,15.1,7.3,23.2,10.3
		c2.3,0.8,4.6,1.4,6.9,1.5c2.3,0.2,4.5,0.1,6.7-0.4c8.1-1.7,16.9-7.6,20.9-18c2.5-2.5,4.5-5,4.3-8.7
		C395.1,159.1,394.6,157.4,393.6,155.6z"/>
</g>
<g id="Capa_7" class="st0">
	<path class="st1" d="M391.7,96.9c-3.7-13.7-9.6-26.7-21.1-35.5c-11.1-8.5-25.9-11.7-39.6-9.9c-12.4,1.6-25.2,7.2-33.3,16.9
		c-2.9,3.5-4.7,8.8-2.1,13c2.6,4.2,6,4.3,10,1.6c3.9-2.6,6.5-5.3,11-7.1c4.5-1.8,9.5-2.2,14.3-2.3c10.5-0.3,20.1,1.7,28.4,8.3
		c14.9,11.7,20.2,31.7,12.1,48.9c-3.3,7-9.3,12.1-15.7,16.2c-2.9,1.9-6.2,3-9.4,4.4c-3.7-3.1-7.7-5.8-12.4-8
		c-10.2-4.9-21.9-2.6-32.7-1.4c-25.8,2.8-52.3-1.8-77.6-6.4c-22.2-4-45.2-7.1-62.9-22.7c-8.8-7.8-13.9-19.4-20.1-29.2
		c-2.7-4.2-5.9-8.1-9.5-11.5c-4.7-5.6-8.2-12.4-12.7-18.2c-4.2-5.6-8.9-10-14.8-13.7c-5.6-3.5-12.3-8-19-9
		c-5.7-0.8-12.9,1.6-18.2,3.3c-7.2,2.3-12.6,5.4-17.4,11.2c-2.2,2.7-4.2,5.6-6.6,8.1c-3.2,3.2-8.3,3.1-12.4,3.2
		c-5.9,0.1-11.8-0.3-17.3,1.8c-0.2-0.1-0.3-0.1-0.5-0.1C5,59,4.5,66.2,7.5,71.1c-4.1,14.1,6.3,32.1,21.4,32.7
		c9.6,0.4,18.7-4.5,27.9-7.7c-0.3,5.9-1.9,11.7-3.5,17.3c-1.3,4.7,1,8,4.7,10.6c6,4.2,12.4,4,17.9,1.2c3.7,14.5,7.2,29.1,11.1,43.6
		c3.9,14.5,6.5,29.2,12.7,42.9c3.5,7.7,7.4,15.4,10.4,23.4c1.2,3.3,2,7,5,9.1c0.5,1.5,1,3,1.2,4.6c1.3,8.8,2.4,17.5,3,26.4
		c1.1,15.8,0.8,31.6,0.3,47.4c-0.2,5.6,0.1,11.2-1.4,16.7c-2,7.6-10.8,5.5-15.5,10.2c-5.2,5.3-5.6,13.9,2.2,16
		c8.1,2.2,18.2,2,24.3-4.4c3.4-3.6,3.3-8.8,3.3-13.3c0-8,6.2-11,9.6-17.1c2.3-4.2,0-11.1-0.4-15.4c-1-8.6-1.5-17.2-1.1-25.8
		c0.5-9.6,2.7-19.2,6.9-28c1.6-3.4,3.8-6.3,6.1-9.1c1.2,0.5,2.5,1.1,3.8,1.6c7.7,3,15.1,6.3,23.2,7.9c14.1,2.8,29.1,1.9,43.1-1
		c19.4-4,38.5-13,58-16.4c2.7,7.2,5.2,14.3,10.1,20.7c6.9,9.2,15.6,15.9,25.8,21c11.6,5.9,23.6,11,31.2,22.2
		c4,5.8,5.5,13.2,6.7,20.1c1,5.6,2.4,12.2,0.6,17.8c-4.6-0.9-10.4,0.9-13.1,4c-4.8,5.4-6.5,15.9,0.4,20.1c6.7,4,17.5,3.1,24.5,0.7
		c10.3-3.6,6.9-19.1,6.7-27.2c-0.3-8.8-0.9-17.9,1.8-26.4c1.6-5.2,8-13.7,5.8-19.7c-2.5-6.9-8-11.9-10.2-19.2
		c-2.9-9.8-1.9-20.4-0.5-30.3c2.3-16,6.8-32.2,4-48.4c-1.3-7.5-2.9-15.7-6.6-22.3c-1.1-2-2.5-4.4-4.1-6.5c8.7-6.8,15.5-16.3,20.4-26
		c3.7-7.4,6.6-15.3,8.5-23.4C395.5,113.4,393.9,104.8,391.7,96.9z"/>
</g>
<g id="Capa_8" class="st0">
	<path class="st1" d="M21.9,118.1c8,6,17.4,5.5,26.7,3.4c4.4,3.2,9.1,4.9,16.4,3.9c5.6-0.7,11.9-2.1,17.1,1
		c5.2,3.1,8.7,8.1,10.4,13.9c3.5,11.7,2.5,24.6-1.2,36.2c-3.4,11-8.4,21.3-7.1,33.1c0.1,1,1.1,1.7,2,1.1c0.7-0.4,1.4-0.8,2-1.2
		c0.6,6.5-3.3,14.9,0.8,20.7c1.9,2.7,2.1,5.1,2.3,8c-0.5,3.1-0.4,6.4-0.2,9.6c0.7,9.1,0.9,18.5,4.5,27c0.5,1.2,1.1,2.3,1.6,3.5
		c1.5,5.6,3.8,11.1,5.4,16.2c4.6,14.4,5.6,29.4,6.8,44.3c0.5,6.2,4.9,11.2,2.5,17.2c-0.3,0.6-0.5,1.2-0.9,1.7
		c-0.3,0.6-0.7,1.1-1.1,1.6c-0.4,3.5-6.4,4-8.5,3.1c-0.8,0.3-1.3,0.7-1.8,1.1c-1.5,1.3-3,2.6-4.2,4.1c-2.3,2.8-8.8,14.1-4.1,17
		c1.6,1,4.5,0.4,6.2,0.3c3.2-0.3,6.5-0.1,9.8-0.1c6,0,12.5,0.6,18.5,0c4.7-0.5,7.3-2.2,8.8-4.9c1.5-4.8,1.5-13.6,1.1-18.2
		c0-2.5-0.1-5-0.1-7.5c0-10,0.2-15,0.3-25c0-2.3,0-4.7,0-7c6.4,4.1,13.4,7.1,20.3,10.1c8.8,3.9,17.6,7.5,26.6,10.6
		c10.1,3.5,19.6,7.4,28.7,12.1c2.3,1.2,4.5,2.4,6.7,3.7c3.5,0.7,3.5,3.6,6.4,3.6c-8.9,5.9-17.7,3-27.5,3.1c-2.6,0.1-5.1,0.1-7.6,0.1
		c-2.1,0-4.6,0-7.2,0.1c-2.6,0.1-5.4,0.3-8.1,0.8c-8.6,1.8-14.5,7.7-11.6,16.5c3,5.9,11.8,5.9,17.5,6.1c3-0.1,6-0.3,8.6-0.6
		c2.6,0.1,5.3-0.1,8.1-0.4c21.9,3.7,45.5-8.1,63.4,6.2c3.9,0.1,7.7-0.2,11.6-0.5c3.9-0.3,7.7-0.5,11.6-0.3c10,0.4,19.9,1.9,29.9,0.8
		c4.4-0.5,10.2-0.4,14.3-2.6c4.3-2.4,2.4-8.8-0.8-15c4.4-8.7,7.9-17.7,10-27c8.3,2.1,17.7,3.4,24.8-0.6c2.3-1.3,2.5-3.3,2.9-5.7
		c1-5.9,3.5-8.9,6.8-13.9c4.2-6.4,7.2-13.9,10.4-20.9c2.7-5.7,6.9-12,7.8-18.3c0.6-4.3-4.3-7.3-2.4-11.9c1.5-3.7,5.6-7.4,5.6-11.7
		c0-3-1-3.7-2.8-6c-3.4-4.2,1.5-11.6,2.3-15.9c1.1-5.4-0.1-9.1-1.9-14.2c-2.6-7.2-0.2-16.8-5.8-22.7c-3.2-3.4-4.6-6-6.2-10.3
		c-0.7-1.8-2.2-4.1-4-4.9c-7.7-3.5-10.8-11.3-18.5-14.9c-4.9-2.3-6.9-5.2-9.6-9.7c-1.2-2-3.1-2.7-5.3-3c-6.9-0.9-9.2-8.1-16.8-8
		c-2,0-6,0.1-6.5,2.8c-1.2,6.7,9.2,13.9,13.2,17.9c11.1,11.2,13.9,29.4,17,44.3c2.2,10.6,5.6,21.4,6,32.3
		c0.3,10.2-2.3,20.3-6.8,29.5c-3.3,6.7-8,11.4-14,15.3c-7.4-19-20.5-36.5-35.4-49.8c-9.4-8.4-19.7-15.8-29.5-23.7
		c-5.8-4.7-11-9.4-15.3-15.6c-3.4-4.9-6.4-10.1-10-14.8c-7.4-9.6-16.1-17.6-26.1-24.4c-5.8-3.9-10.9-8.5-15.9-13.1
		c-6-9.3-9.6-21-14.4-29.7c-3.7-6.7-9.3-11.6-14.1-17.5c-0.3-0.4-0.6-0.7-0.9-1.1c-0.2-0.6-0.3-1.3-0.6-1.8
		c-3.7-10.3-8.6-21.2-16.5-29c-4.7-4.6-10.2-8.8-13.3-14.7c-1.8-3.4-3.5-6.9-5.6-10.1c-1.2-1.9-2.5-3.8-4-5.6
		c-1.5-7.8-3.4-16-8-21.8c-3.5-4.4-8.4-6.8-12.3-10.7c-3.9-3.8-7.4-8-12.2-10.9c-1.2-0.7-2.2,0.6-1.9,1.6C97,7,96.9,7.3,97,7.6
		c0.8,2.9,6.1,25.2,6.3,33c-8.1,1.5-17.5-0.8-25.4,2.1c-7.4,2.7-11.7,10.2-15.8,16.8c-1.6,0.7-3,1.8-4.4,3.5c-1.9,2.5-3,5.5-4.9,8
		c-3.3,4.5-8.1,6.2-13.4,6.9c-9,1.3-30.2,0.3-31.5,13.3C7.1,101,14.3,112.4,21.9,118.1z"/>
</g>
</svg>
